<?xml version="1.0" encoding="utf-8"?>
<!-- Generator: Adobe Illustrator 27.5.0, SVG Export Plug-In . SVG Version: 6.00 Build 0)  -->
<svg version="1.1" xmlns="http://www.w3.org/2000/svg" xmlns:xlink="http://www.w3.org/1999/xlink" x="0px" y="0px"
	 viewBox="0 0 500 500" style="enable-background:new 0 0 500 500;" xml:space="preserve">
<g id="BACKGROUND">
	<g>
		<rect style="fill:#FFFFFF;" width="500" height="500"/>
	</g>
</g>
<g id="OBJECTS">
	<g>
		<g>
			<path style="fill:none;stroke:#D8E1EF;stroke-width:0.7087;stroke-miterlimit:10;" d="M388.71,118.39
				c-7.285-7.285-7.285-19.097,0-26.382c7.285-7.285,19.097-7.285,26.382,0c7.285,7.285,7.285,19.097,0,26.382
				C407.807,125.675,395.995,125.675,388.71,118.39z"/>
			<path style="fill:none;stroke:#D8E1EF;stroke-width:0.7087;stroke-miterlimit:10;" d="M438.128,254.558
				c-1.834-1.834-1.834-4.807,0-6.641c1.834-1.834,4.807-1.834,6.642,0c1.834,1.834,1.834,4.808,0,6.641
				C442.935,256.392,439.962,256.392,438.128,254.558z"/>
			<path style="fill:#D8E1EF;" d="M151.08,61.324h-3.451c-0.329,0-0.595-0.284-0.595-0.635v-3.681c0-0.351-0.266-0.635-0.595-0.635
				l0,0c-0.329,0-0.595,0.284-0.595,0.635v3.681c0,0.351-0.266,0.635-0.595,0.635h-3.451c-0.329,0-0.595,0.284-0.595,0.635l0,0
				c0,0.351,0.266,0.635,0.595,0.635h3.451c0.329,0,0.595,0.284,0.595,0.635v3.681c0,0.351,0.266,0.635,0.595,0.635l0,0
				c0.329,0,0.595-0.284,0.595-0.635v-3.681c0-0.351,0.266-0.635,0.595-0.635h3.451c0.329,0,0.595-0.284,0.595-0.635l0,0
				C151.675,61.608,151.409,61.324,151.08,61.324z"/>
			<path style="fill:#D8E1EF;" d="M165.997,77.187h-5.652c-0.538,0-0.975-0.436-0.975-0.974V70.56c0-0.538-0.436-0.975-0.974-0.975
				l0,0c-0.538,0-0.975,0.436-0.975,0.975v5.652c0,0.538-0.436,0.974-0.975,0.974h-5.652c-0.538,0-0.975,0.436-0.975,0.974l0,0
				c0,0.538,0.436,0.975,0.975,0.975h5.652c0.538,0,0.975,0.436,0.975,0.974v5.652c0,0.538,0.436,0.975,0.975,0.975l0,0
				c0.538,0,0.974-0.436,0.974-0.975V80.11c0-0.538,0.436-0.974,0.975-0.974h5.652c0.538,0,0.975-0.436,0.975-0.975l0,0
				C166.971,77.623,166.535,77.187,165.997,77.187z"/>
			<g>
				
					<ellipse transform="matrix(0.9944 -0.1052 0.1052 0.9944 -15.6955 13.1517)" style="fill:#D8E1EF;" cx="116.792" cy="155.323" rx="36.135" ry="36.135"/>
				
					<ellipse transform="matrix(0.1589 -0.9873 0.9873 0.1589 -55.1183 245.9463)" style="fill:#FFFFFF;" cx="116.792" cy="155.323" rx="33.147" ry="33.147"/>
				<g>
					<path style="fill:#D8E1EF;" d="M120.664,134.137c0.153,3.966,0.159,7.929,0.176,11.892c-0.025,3.962-0.066,7.924-0.181,11.884
						l-0.014,0.489l-0.483-0.012c-2.97-0.073-5.94-0.176-8.909-0.326c-1.484-0.076-2.969-0.126-4.453-0.225
						c-1.484-0.099-2.968-0.178-4.452-0.305c1.487-0.066,2.974-0.083,4.461-0.121c1.487-0.037,2.972-0.025,4.459-0.04
						c2.972-0.027,5.944-0.007,8.915,0.043l-0.497,0.477c0.049-3.962,0.171-7.922,0.31-11.882
						C120.178,142.052,120.348,138.093,120.664,134.137z"/>
				</g>
			</g>
			
				<ellipse transform="matrix(0.9228 -0.3852 0.3852 0.9228 -82.2361 45.0098)" style="fill:none;stroke:#D8E1EF;stroke-width:0.7087;stroke-miterlimit:10;" cx="71.21" cy="227.736" rx="10.885" ry="10.885"/>
		</g>
		<g>
			<g>
				<path style="fill:#ECF0F7;" d="M117.389,402.366c-17.401-1.887-45.218-27.791-49.533-51.391
					c-2.295-12.553-2.325-26.978,4.878-38.512c7.927-12.695,22.224-18.373,32.928-28.419c13.267-12.451,20.722-31.381,34.753-42.702
					c10.56-8.52,24.234-11.631,35.688-8.119c11.454,3.512,24.463,16.517,26.938,29.335c3.483,18.04,5.01,25.637,7.762,37.588
					c2.247,9.759-0.404,14.552,2.529,24.004c6.991,22.524-2.658,51.674-21.68,67.862c-19.022,16.189-40.463,14.723-68.35,12.543"/>
			</g>
			<g>
				<path style="fill:#D8E1EF;" d="M417.456,438.195c2.246-6.385,6.439-12.628,12.949-14.91c7.177-2.516,17.022-0.457,21.109-6.725
					c2.051-3.147,1.433-7.717-1.392-10.29c-2.825-2.573-7.538-2.857-10.61-0.64c-1.56-5.018,2.986-9.779,7.591-12.399
					c4.606-2.619,10.08-4.771,12.328-9.49c2.248-4.719-2.707-12.04-7.334-9.455c-1.62,0.905-2.829,2.827-4.705,2.739
					c-1.878-0.088-2.994-2.359-2.557-4.137c0.438-1.778,1.885-3.114,3.265-4.342c4.199-3.737,8.397-7.475,12.595-11.212
					c3.317-2.952,6.832-6.257,7.477-10.61c0.645-4.353-3.483-9.481-7.754-8.098c-3.063,0.992-5.616,4.853-8.537,3.455
					c-2.643-1.265-1.713-5.156-0.136-7.548c3.988-6.051,9.559-10.991,13.445-17.104c3.887-6.113,5.859-14.258,2.026-20.49
					c-1.621-2.636-4.478-4.8-7.61-4.694c-4.123,0.139-6.989,3.904-8.966,7.418c-5.396,9.594-8.949,20.185-10.424,31.07
					c-3.448-0.21-4.687-4.465-5.395-7.77c-0.709-3.304-3.395-7.362-6.575-6.085c-1.325,0.532-2.102,1.879-2.534,3.212
					c-3.273,10.095,7.6,19.151,10.528,29.416c0.782,2.742,0.951,5.795-0.386,8.3c-1.337,2.505-4.505,4.189-7.249,3.216
					c-3.131-1.11-6.781-4.999-8.703-2.38c-1.006,1.371-0.038,3.259,0.865,4.718c3.773,6.097,6.443,12.834,7.851,19.801
					c0.867,4.293,1.082,9.239-1.9,12.461c-2.982,3.222-10.024,2.217-10.348-2.141c-2.103-0.292-3.764,1.981-3.697,4.051
					c0.066,2.069,1.261,3.926,2.252,5.767c4.705,8.743,5.245,19.482,1.436,28.538"/>
			</g>
			<g>
				<path style="fill:#D8E1EF;" d="M70.678,437.168l-27.954-42.557c-1.873-2.852,1.054-6.603,4.151-5.269
					c7.84,3.378,14.659,9.201,19.159,16.592c2.148-12.093-7.189-22.647-15.837-30.968c-6.876-6.616-14.264-14.514-16.081-23.576
					c-0.736-3.672,2.783-6.814,6.257-5.661c7.743,2.572,14.736,7.425,19.846,13.891c-7.765-14.501-17.497-27.871-28.834-39.614
					c-2.585-2.677-5.383-5.783-7.086-9.116c-2.153-4.214,1.776-9.17,6.215-7.749c4.972,1.592,9.628,4.182,13.602,7.608
					c-10.38-14.104-21.33-30.51-18.135-48.064c0.671-3.686,2.121-7.538,6.834-8.371c1.933-0.342,3.937-0.011,5.685,0.861
					c4.127,2.061,6.503,6.241,8.438,10.386c4.638,9.936,7.626,20.699,8.811,31.696c0.208,1.928,2.683,2.574,3.758,0.956
					c3.554-5.345,2.333-16.28,8.784-18.03c3.116-0.846,6.28,1.012,7.462,4.052c2.178,5.599-0.476,10.835-2.612,15.887
					c-4.986,11.79-7.519,24.629-7.38,37.4c2.872-1.575,5.759-3.12,8.661-4.634c5.976-3.118,12.548,2.66,10.453,9.177
					c-3.062,9.528-10.494,19.393-11.113,29.666c-0.095,1.572,0.045,3.361,2.134,3.868c1.896,0.46,3.871-0.564,4.888-2.293
					c4.303-7.315,12.341-1.325,12.384,4.854c0.035,5.123-3.313,9.594-6.519,13.577c-3.206,3.984-6.609,8.383-6.715,13.507
					l8.967-2.835c3.641-1.151,6.68,2.782,4.842,6.213c-1.954,3.647-5.347,6.929-8.482,9.714
					c-5.336,4.743-11.028,11.609-8.542,18.282"/>
			</g>
			<g>
				<path style="fill:#ECF0F7;" d="M324.449,287.546c59.491,3.653,78.26-16.813,93.933-32.877
					c8.336-8.545,13.139-27.528,12.811-39.734c-0.361-13.434-9.745-24.47-13.831-37.173c-5.065-15.745-1.857-33.735-8.151-48.971
					c-4.737-11.466-14.889-20.245-26.496-22.91c-11.607-2.666-29.363,1.215-37.988,9.879c-12.138,12.193-17.302,17.3-25.725,25.17
					c-6.878,6.427-7.035,11.339-14.346,17.209c-17.422,13.988-23.931,40.836-15.825,62.135
					c8.106,21.299,10.138,50.909,31.966,50.573"/>
			</g>
			<ellipse style="fill:#ECF0F7;" cx="248" cy="440.754" rx="218.479" ry="10.131"/>
		</g>
	</g>
	<g>
		<g>
			<g>
				<g id="base_1_">
					<g>
						<path style="fill:#FFFFFF;stroke:#1D1D1B;stroke-miterlimit:10;" d="M313.647,422.863H203.745
							c-12.691,0-22.979-10.288-22.979-22.979V97.874c0-12.691,10.288-22.979,22.979-22.979h109.902
							c12.691,0,22.979,10.288,22.979,22.979v302.01C336.625,412.575,326.338,422.863,313.647,422.863z"/>
						<g>
							<g>
								<g>
									
										<text transform="matrix(0.9399 0 0 1 196.0127 96.3868)" style="fill:#817E84; font-family:'Poppins-Regular'; font-size:5.6569px;">8:30</text>
								</g>
								<g>
									<rect x="295.306" y="94.517" style="fill:#817E84;" width="1.207" height="2.101"/>
									<rect x="297.034" y="93.671" style="fill:#817E84;" width="1.207" height="2.947"/>
									<rect x="298.761" y="92.854" style="fill:#817E84;" width="1.207" height="3.764"/>
									<rect x="300.489" y="91.921" style="fill:#817E84;" width="1.206" height="4.697"/>
								</g>
								<g>
									<path style="fill:#817E84;" d="M304.322,94.309c0.694-0.72,1.64-1.166,2.685-1.166c1.046,0,1.991,0.447,2.686,1.166
										l0.812-0.864c-0.903-0.941-2.137-1.524-3.498-1.524c-1.361,0-2.595,0.583-3.498,1.524L304.322,94.309z"/>
									<path style="fill:#817E84;" d="M305.406,95.462c0.417-0.425,0.979-0.69,1.601-0.69c0.622,0,1.184,0.265,1.602,0.69
										l0.812-0.864c-0.625-0.646-1.475-1.048-2.414-1.048c-0.938,0-1.788,0.402-2.414,1.048L305.406,95.462z"/>
									<path style="fill:#817E84;" d="M306.492,96.618c0.139-0.13,0.316-0.216,0.515-0.216c0.199,0,0.376,0.086,0.515,0.216
										l0.816-0.868c-0.348-0.351-0.815-0.57-1.331-0.57c-0.516,0-0.983,0.219-1.331,0.57L306.492,96.618z"/>
								</g>
								<g>
									<path style="fill:#817E84;" d="M319.655,96.049h-7.235c-0.122,0-0.222-0.099-0.222-0.222v-3.116
										c0-0.122,0.099-0.222,0.222-0.222h7.235c0.123,0,0.222,0.099,0.222,0.222v3.116
										C319.877,95.949,319.777,96.049,319.655,96.049z"/>
									<path style="fill:#817E84;" d="M320.45,95.035h-0.173c-0.122,0-0.222-0.099-0.222-0.222v-1.088
										c0-0.122,0.099-0.222,0.222-0.222h0.173c0.122,0,0.222,0.099,0.222,0.222v1.088
										C320.672,94.936,320.573,95.035,320.45,95.035z"/>
								</g>
							</g>
						</g>
					</g>
				</g>
				<g id="map">
					<g>
						<path style="fill:#F0EFED;" d="M316.888,319.12H200.15c-6.102,0-11.049-4.947-11.049-11.049V123.975
							c0-6.102,4.947-11.049,11.049-11.049h116.738c6.102,0,11.049,4.947,11.049,11.049v184.096
							C327.937,314.173,322.99,319.12,316.888,319.12z"/>
						<g>
							
								<line style="fill:none;stroke:#FFFFFF;stroke-width:0.9921;stroke-miterlimit:10;" x1="286.448" y1="144.129" x2="280.627" y2="158.477"/>
							
								<line style="fill:none;stroke:#FFFFFF;stroke-width:0.9921;stroke-miterlimit:10;" x1="217.03" y1="279.841" x2="238.475" y2="282.428"/>
							
								<line style="fill:none;stroke:#FFFFFF;stroke-width:0.9921;stroke-miterlimit:10;" x1="202.66" y1="106.027" x2="239.064" y2="169.766"/>
							
								<line style="fill:none;stroke:#FFFFFF;stroke-width:0.9921;stroke-miterlimit:10;" x1="303.471" y1="139.661" x2="295.66" y2="160.045"/>
							<path style="fill:none;stroke:#FFFFFF;stroke-width:1.4173;stroke-miterlimit:10;" d="M251.849,162.406l26.644,26.988
								c1.285,1.302,2.116,3.031,2.356,4.902l0,0c0.048,0.373,0.072,0.748,0.072,1.124v123.466l11.201,12.701"/>
							
								<line style="fill:none;stroke:#FFFFFF;stroke-width:1.4173;stroke-miterlimit:10;" x1="279.153" y1="102.028" x2="252.329" y2="162.867"/>
							
								<line style="fill:none;stroke:#FFFFFF;stroke-width:0.9921;stroke-miterlimit:10;" x1="286.375" y1="144.208" x2="265.446" y2="133.859"/>
							
								<line style="fill:none;stroke:#FFFFFF;stroke-width:0.9921;stroke-miterlimit:10;" x1="280.627" y1="290.19" x2="330.148" y2="290.504"/>
							<polyline style="fill:none;stroke:#FFFFFF;stroke-width:1.4173;stroke-miterlimit:10;" points="186.596,160.672 
								211.503,185.76 252.624,162.71 							"/>
							<path style="fill:none;stroke:#FFFFFF;stroke-width:1.4173;stroke-miterlimit:10;" d="M211.503,185.76l4.195,19.983
								c3.761,17.917,4.741,36.369,2.901,54.623l-7.243,71.846"/>
							<path style="fill:none;stroke:#FFFFFF;stroke-width:1.4173;stroke-miterlimit:10;" d="M218.535,220.459l25.246-7.886
								c0-1.882,0.295-10.506,0.295-10.506l18.276-6.586"/>
							
								<line style="fill:none;stroke:#FFFFFF;stroke-width:0.9921;stroke-miterlimit:10;" x1="253.803" y1="198.932" x2="258.372" y2="251.382"/>
							
								<line style="fill:none;stroke:#FFFFFF;stroke-width:0.9921;stroke-miterlimit:10;" x1="269.646" y1="180.351" x2="262.351" y2="196.344"/>
							
								<line style="fill:none;stroke:#FFFFFF;stroke-width:0.9921;stroke-miterlimit:10;" x1="230.811" y1="215.866" x2="222.557" y2="179.41"/>
							
								<line style="fill:none;stroke:#FFFFFF;stroke-width:0.9921;stroke-miterlimit:10;" x1="267.583" y1="250.755" x2="266.773" y2="277.489"/>
							
								<line style="fill:none;stroke:#FFFFFF;stroke-width:0.9921;stroke-miterlimit:10;" x1="225.8" y1="195.796" x2="240.022" y2="190.7"/>
							
								<line style="fill:none;stroke:#FFFFFF;stroke-width:0.9921;stroke-miterlimit:10;" x1="240.022" y1="190.7" x2="237.59" y2="180.586"/>
							<polyline style="fill:none;stroke:#FFFFFF;stroke-width:1.4173;stroke-miterlimit:10;" points="281.511,224.02 
								308.63,224.02 308.63,176.039 316.736,145.305 269.867,122.726 							"/>
							<path style="fill:#FFFFFF;" d="M216.367,288.309"/>
							<polyline style="fill:none;stroke:#FFFFFF;stroke-width:1.4173;stroke-miterlimit:10;" points="186.006,246.913 
								201.039,251.931 196.028,280.155 216.662,283.918 							"/>
							
								<line style="fill:none;stroke:#FFFFFF;stroke-width:0.9921;stroke-miterlimit:10;" x1="199.271" y1="262.593" x2="217.841" y2="266.356"/>
							<polyline style="fill:none;stroke:#FFFFFF;stroke-width:1.4173;stroke-miterlimit:10;" points="214.893,202.381 
								198.386,208.34 184.827,200.5 							"/>
							
								<line style="fill:none;stroke:#FFFFFF;stroke-width:0.9921;stroke-miterlimit:10;" x1="304.503" y1="290.504" x2="304.798" y2="331.899"/>
							
								<line style="fill:none;stroke:#FFFFFF;stroke-width:1.4173;stroke-miterlimit:10;" x1="280.627" y1="303.989" x2="247.613" y2="302.421"/>
							<polyline style="fill:none;stroke:#FFFFFF;stroke-width:1.4173;stroke-miterlimit:10;" points="244.665,332.213 
								249.676,265.729 218.725,261.966 							"/>
							<polyline style="fill:none;stroke:#FFFFFF;stroke-width:0.9921;stroke-miterlimit:10;" points="226.979,321.002 
								228.592,304.676 237.626,305.783 238.917,292.777 							"/>
							<path style="fill:none;stroke:#FFFFFF;stroke-width:0.9921;stroke-miterlimit:10;" d="M281.216,243.777
								c0.438,0,30.951-0.941,30.951-0.941v8.781l23.876,0.314"/>
							<path style="fill:none;stroke:#FFFFFF;stroke-width:0.9921;stroke-miterlimit:10;" d="M305.092,310.261
								c0.884-0.314,16.802-0.314,16.802-0.314"/>
							
								<line style="fill:none;stroke:#FFFFFF;stroke-width:0.9921;stroke-miterlimit:10;" x1="308.63" y1="176.039" x2="289.764" y2="176.352"/>
							<path style="fill:none;stroke:#FFFFFF;stroke-width:1.4173;stroke-miterlimit:10;" d="M239.506,282.193
								c0.148-0.47,3.685-31.988,3.685-31.988l36.993,0.941"/>
						</g>
					</g>
				</g>
			</g>
			<path style="fill:#EA7C37;" d="M224.003,131.277c-2.647-0.02-4.811,2.272-4.832,5.12c-0.022,2.848,4.715,10.44,4.715,10.44
				s4.851-7.52,4.872-10.368C228.779,133.622,226.65,131.297,224.003,131.277z M223.946,138.827
				c-1.424-0.011-2.569-1.194-2.558-2.643c0.011-1.449,1.174-2.615,2.598-2.605c1.423,0.011,2.569,1.194,2.558,2.644
				C226.532,137.672,225.369,138.838,223.946,138.827z"/>
			<polyline style="fill:none;stroke:#EA7C37;stroke-width:1.4173;stroke-linecap:round;stroke-miterlimit:10;" points="
				224.215,145.429 239.523,171.521 222.514,182.306 230.338,218.835 244.285,215.009 250.408,252.582 283.745,252.582 			"/>
			<g>
				<path style="fill:#EA7C37;" d="M288.963,252.973c0,2.81-2.278,5.088-5.088,5.088c-2.81,0-5.088-2.278-5.088-5.088
					c0-2.81,2.278-5.088,5.088-5.088C286.685,247.885,288.963,250.163,288.963,252.973z"/>
				<path style="fill:#F0EFED;" d="M286.615,252.973c0,1.513-1.227,2.74-2.74,2.74c-1.513,0-2.74-1.227-2.74-2.74
					c0-1.513,1.227-2.74,2.74-2.74C285.388,250.234,286.615,251.46,286.615,252.973z"/>
			</g>
			<g>
				<path style="fill:#FFFFFF;" d="M312.397,278.578h3.451c0.329,0,0.595,0.284,0.595,0.635v3.682c0,0.351,0.266,0.635,0.595,0.635
					l0,0c0.329,0,0.595-0.284,0.595-0.635v-3.682c0-0.351,0.266-0.635,0.595-0.635h3.451c0.329,0,0.595-0.284,0.595-0.635l0,0
					c0-0.351-0.266-0.635-0.595-0.635h-3.451c-0.329,0-0.595-0.284-0.595-0.635v-3.682c0-0.351-0.266-0.635-0.595-0.635l0,0
					c-0.329,0-0.595,0.284-0.595,0.635v3.682c0,0.351-0.266,0.635-0.595,0.635h-3.451c-0.329,0-0.595,0.284-0.595,0.635l0,0
					C311.802,278.293,312.069,278.578,312.397,278.578z"/>
				<path style="fill:#FFFFFF;" d="M297.481,262.715h5.652c0.538,0,0.974,0.436,0.974,0.974v5.652c0,0.538,0.436,0.974,0.975,0.974
					l0,0c0.538,0,0.975-0.436,0.975-0.974v-5.652c0-0.538,0.436-0.974,0.974-0.974h5.652c0.538,0,0.974-0.436,0.974-0.974l0,0
					c0-0.538-0.436-0.975-0.974-0.975h-5.652c-0.538,0-0.974-0.436-0.974-0.974v-5.652c0-0.538-0.436-0.974-0.975-0.974l0,0
					c-0.538,0-0.975,0.436-0.975,0.974v5.652c0,0.538-0.436,0.974-0.974,0.974h-5.652c-0.538,0-0.974,0.436-0.974,0.975l0,0
					C296.506,262.278,296.942,262.715,297.481,262.715z"/>
			</g>
		</g>
		<g>
			<g>
				<path style="fill:#EA7C37;" d="M167.993,410.711c-1.623-14.105-2.548-28.291-2.771-42.487c-0.058-3.7-0.053-7.493,1.214-10.97
					c1.407-3.858,4.244-6.996,7.016-10.026c4.166-4.555,8.394-9.164,13.584-12.505c6.752-4.347,14.778-6.31,22.752-7.258
					c6.824-0.811,13.709-0.931,20.58-1.049c20.6-0.355,41.201-0.711,61.801-1.066c5.141-0.089,10.332-0.173,15.366,0.871
					c6.009,1.246,11.564,4.047,17.038,6.821c8.258,4.184,16.976,8.793,21.559,16.836c3.729,6.544,3.566,14.16,3.888,21.685
					c0.549,12.822,0.522,25.571-1.27,38.564c-0.251,1.824-1.004,3.711-2.497,4.787c-1.192,0.858-2.738,1.01-4.204,1.097
					c-15.819,0.936-31.829-2.345-47.465,0.228"/>
			</g>
			<path style="fill:#38303B;" d="M191.784,410.506h-17.758c-1.974,0-3.574,1.6-3.574,3.574v19.395c0,1.974,1.6,3.574,3.574,3.574
				h17.758c1.974,0,3.574-1.6,3.574-3.574V414.08C195.359,412.106,193.758,410.506,191.784,410.506z"/>
			<rect x="170.451" y="413.769" style="opacity:0.58;fill:#211E23;" width="24.907" height="15.448"/>
			<path style="fill:#38303B;" d="M343.173,410.506h-17.758c-1.974,0-3.574,1.6-3.574,3.574v19.395c0,1.974,1.6,3.574,3.574,3.574
				h17.758c1.974,0,3.574-1.6,3.574-3.574V414.08C346.747,412.106,345.147,410.506,343.173,410.506z"/>
			<rect x="321.84" y="413.769" style="opacity:0.58;fill:#211E23;" width="24.907" height="15.448"/>
			<path style="fill:#EA7C37;" d="M297.66,292.847h-77.987l10.019-18.358c0.874-1.602,2.554-2.599,4.379-2.599h49.191
				c1.825,0,3.504,0.997,4.379,2.599L297.66,292.847z"/>
			<path style="fill:#F0EFED;" d="M293.824,291.817h-70.316l9.401-15.659c0.566-0.943,1.585-1.519,2.684-1.519h46.147
				c1.099,0,2.118,0.577,2.684,1.519L293.824,291.817z"/>
			<rect x="233.071" y="277.387" style="fill:none;" width="51.533" height="16.462"/>
			<text transform="matrix(1 0 0 1 243.1084 287.3439)" style="fill:#38303B; font-family:'Poppins-Bold'; font-size:13.456px;">TAXI</text>
			<path style="fill:#EA7C37;" d="M331.076,336.263l-148.162,2.529l15.583-41.149c1.297-3.424,4.29-5.658,7.616-5.683l100.771-0.761
				c3.256-0.025,6.226,2.074,7.605,5.372L331.076,336.263z"/>
			<path style="fill:#F0EFED;" d="M326.929,336.102l-139.868,2.309l14.71-37.574c1.224-3.127,4.05-5.167,7.19-5.19l95.13-0.695
				c3.074-0.022,5.878,1.893,7.179,4.905L326.929,336.102z"/>
			<path style="fill:#F0EFED;" d="M299.116,383.278c0,0-30.817,2.816-41.116,2.811c-10.097-0.005-40.306-2.811-40.306-2.811
				c-2.234,0-4.044-1.42-4.044-3.173v-3.999c0-1.752,1.811-3.173,4.044-3.173c0,0,29.963-2.67,39.958-2.674
				c10.371-0.005,41.464,2.674,41.464,2.674c2.234,0,4.044,1.421,4.044,3.173v3.999C303.16,381.858,301.349,383.278,299.116,383.278
				z"/>
			<path style="fill:#F0EFED;" d="M306.514,401.368h-96.219c-0.727,0-1.316-0.589-1.316-1.316v-1.285
				c0-0.727,0.589-1.315,1.316-1.315h96.219c0.727,0,1.315,0.589,1.315,1.315v1.285C307.83,400.779,307.241,401.368,306.514,401.368
				z"/>
			<path style="fill:#C4C4C4;" d="M348.525,407.46h-180.24c-3.102,0-5.617,2.515-5.617,5.617v6.607c0,3.102,2.515,5.617,5.617,5.617
				h180.24c3.102,0,5.617-2.515,5.617-5.617v-6.607C354.142,409.974,351.627,407.46,348.525,407.46z"/>
			<path style="opacity:0.14;fill:#38303B;" d="M162.668,418.338v2.176c0,2.644,1.917,4.787,4.281,4.787h182.912
				c2.364,0,4.281-2.143,4.281-4.787v-2.176H162.668z"/>
			<g>
				<path style="fill:#EA7C37;" d="M184.427,336.034c-1.77-0.158-3.644-0.354-5.06-1.429c-0.862-0.654-1.471-1.577-2.117-2.445
					c-1.617-2.174-3.643-4.16-6.188-5.088c-2.545-0.928-5.678-0.591-7.564,1.354c-2.156,2.224-2.07,6.042-0.253,8.552
					c1.816,2.509,4.99,3.784,8.086,3.898c1.828,0.067,3.647-0.223,5.453-0.513c2.744-0.44,5.489-0.88,8.233-1.32"/>
			</g>
			<g>
				<path style="fill:#EA7C37;" d="M329.81,336.034c1.77-0.158,3.644-0.354,5.06-1.429c0.862-0.654,1.471-1.577,2.117-2.445
					c1.617-2.174,3.643-4.16,6.188-5.088c2.545-0.928,5.678-0.591,7.564,1.354c2.156,2.224,2.069,6.042,0.253,8.552
					c-1.816,2.509-4.99,3.784-8.086,3.898c-1.828,0.067-3.647-0.223-5.453-0.513c-2.744-0.44-5.488-0.88-8.233-1.32"/>
			</g>
			<g>
				<path style="fill:#F0EFED;" d="M206.41,381.366c-9.346,2.799-20.036,0.595-27.513-5.672c-3.049-2.556-5.659-5.921-6.262-9.853
					c-0.084-0.546-0.125-1.123,0.084-1.634c0.428-1.049,1.701-1.434,2.824-1.585c7.98-1.075,15.9,2.343,22.792,6.506
					c3.099,1.872,5.975,4.508,8.425,7.174c1.187,1.292,2.133,3.511,0.764,4.607"/>
			</g>
			<g>
				<path style="fill:#F0EFED;" d="M310.299,381.366c9.346,2.799,20.036,0.595,27.513-5.672c3.049-2.556,5.659-5.921,6.262-9.853
					c0.084-0.546,0.125-1.123-0.084-1.634c-0.428-1.049-1.701-1.434-2.824-1.585c-7.98-1.075-15.9,2.343-22.792,6.506
					c-3.099,1.872-5.974,4.508-8.425,7.174c-1.187,1.292-2.133,3.511-0.764,4.607"/>
			</g>
		</g>
	</g>
	<g>
		<g>
			<g>
				<g>
					<g>
						<path style="fill:#EFB93F;" d="M469.784,369.096h-52.359c-3.603,0-6.523-2.921-6.523-6.523v-3.813
							c0-12.633,5.653-22.874,22.874-22.874h19.656c18.047,0,22.874,10.241,22.874,22.874v3.813
							C476.307,366.175,473.387,369.096,469.784,369.096z"/>
						<g>
							<g>
								<g>
									<path style="fill:#38303B;" d="M424.286,368.566c-1.843-7.934-2.044-16.239-0.572-24.252
										c0.417-2.268,0.969-4.508,1.644-6.712c0.189-0.617-0.776-0.88-0.964-0.266c-2.424,7.914-3.203,16.323-2.27,24.547
										c0.265,2.337,0.665,4.657,1.197,6.948C423.468,369.459,424.432,369.193,424.286,368.566L424.286,368.566z"/>
								</g>
							</g>
							<g>
								<g>
									<path style="fill:#38303B;" d="M465.301,369.052c1.61-8.16,1.719-16.579,0.315-24.778c-0.4-2.339-0.929-4.654-1.573-6.938
										c-0.174-0.618-1.14-0.356-0.964,0.266c2.222,7.872,2.985,16.122,2.254,24.269c-0.208,2.322-0.545,4.628-0.996,6.915
										C464.213,369.415,465.177,369.684,465.301,369.052L465.301,369.052z"/>
								</g>
							</g>
						</g>
						<g>
							<g>
								<g>
									<path style="fill:#38303B;" d="M430.748,339.69c2.17-3.636,5.531-6.682,9.672-7.831c3.963-1.1,8.065-0.107,11.376,2.249
										c2.044,1.454,3.715,3.378,5.003,5.521c0.331,0.551,1.196,0.049,0.863-0.505c-2.328-3.871-5.95-7.088-10.379-8.268
										c-4.216-1.123-8.634-0.057-12.13,2.481c-2.148,1.56-3.911,3.573-5.269,5.848
										C429.553,339.739,430.418,340.243,430.748,339.69L430.748,339.69z"/>
								</g>
							</g>
							<g>
								<g>
									<path style="fill:#38303B;" d="M456.358,339.485c-0.358,0.549-0.405,1.275-0.245,1.898
										c0.156,0.605,0.561,1.202,1.191,1.376c0.692,0.191,1.373-0.188,1.776-0.736c0.432-0.587,0.51-1.395,0.237-2.066
										c-0.317-0.781-1.058-1.42-1.944-1.228c-0.256,0.055-0.429,0.368-0.349,0.615c0.087,0.27,0.341,0.409,0.615,0.349
										c0.117-0.025-0.079-0.006-0.006-0.002c0.024,0.001,0.048-0.003,0.072-0.003c0.022,0,0.071-0.006,0.09,0.005
										c-0.003-0.002-0.121-0.029-0.026,0c0.047,0.015,0.094,0.027,0.14,0.044c-0.118-0.044,0.049,0.033,0.081,0.054
										c0.003,0.002,0.104,0.077,0.044,0.029c-0.06-0.049,0.039,0.036,0.04,0.038c0.04,0.037,0.077,0.077,0.114,0.117
										c0.062,0.066,0.013,0.012,0-0.004c0.017,0.022,0.033,0.045,0.049,0.069c0.044,0.065,0.084,0.134,0.119,0.204
										c0.006,0.013,0.045,0.096,0.02,0.04c-0.029-0.067,0.024,0.066,0.023,0.064c0.019,0.056,0.036,0.113,0.049,0.171
										c0.007,0.029,0.012,0.059,0.018,0.088c0.03,0.135,0.003-0.059,0.004,0.024c0.001,0.077,0.009,0.152,0.005,0.229
										c-0.002,0.037-0.005,0.075-0.009,0.112c0.002-0.02,0.02-0.099-0.001-0.007c-0.013,0.054-0.024,0.108-0.04,0.162
										c-0.008,0.026-0.018,0.052-0.026,0.078c-0.036,0.123,0.032-0.057-0.003,0.012c-0.03,0.059-0.059,0.118-0.094,0.175
										c-0.019,0.031-0.125,0.159-0.045,0.073c-0.034,0.037-0.066,0.077-0.102,0.113c-0.022,0.022-0.045,0.042-0.068,0.064
										c-0.012,0.011-0.075,0.063-0.02,0.019c0.062-0.05-0.032,0.021-0.038,0.025c-0.03,0.02-0.06,0.038-0.092,0.055
										c-0.021,0.011-0.042,0.021-0.063,0.032c-0.066,0.035,0.019,0.001,0.023-0.01c-0.008,0.021-0.13,0.038-0.148,0.043
										c-0.068,0.018-0.025-0.01-0.016,0.005c0.011-0.001,0.022-0.003,0.033-0.004c-0.022,0.002-0.045,0.004-0.067,0.004
										c-0.022,0.001-0.045-0.001-0.067-0.001c-0.097,0.004,0.102,0.029,0,0.002c-0.021-0.006-0.125-0.017-0.131-0.036
										c0.001,0.004,0.091,0.048,0.023,0.009c-0.024-0.014-0.049-0.026-0.073-0.04c-0.007-0.005-0.068-0.041-0.067-0.045
										c0.002-0.006,0.094,0.085,0.025,0.017c-0.04-0.039-0.078-0.078-0.116-0.118c-0.021-0.022-0.047-0.073,0.015,0.021
										c-0.013-0.019-0.027-0.037-0.04-0.057c-0.029-0.044-0.056-0.089-0.081-0.136c-0.017-0.032-0.076-0.184-0.033-0.061
										c-0.02-0.058-0.043-0.116-0.061-0.175c-0.018-0.06-0.033-0.121-0.045-0.183c-0.005-0.025-0.009-0.05-0.014-0.075
										c-0.023-0.113,0.004,0.088-0.002-0.018c-0.008-0.128-0.014-0.253-0.004-0.381c0-0.007,0.015-0.13,0.003-0.046
										c-0.011,0.078,0.006-0.029,0.009-0.045c0.013-0.067,0.03-0.133,0.05-0.198c0.007-0.023,0.016-0.046,0.024-0.069
										c0.036-0.105-0.015,0.017,0.006-0.014c0.036-0.054,0.061-0.116,0.097-0.171c0.143-0.219,0.051-0.562-0.179-0.684
										C456.793,339.174,456.511,339.251,456.358,339.485L456.358,339.485z"/>
								</g>
							</g>
							<g>
								<g>
									<path style="fill:#38303B;" d="M429.845,338.706c-0.682,0.151-1.137,0.813-1.307,1.452
										c-0.189,0.711-0.073,1.499,0.43,2.055c0.482,0.533,1.254,0.692,1.906,0.406c0.649-0.285,0.946-1,1.001-1.664
										c0.063-0.757-0.213-1.551-0.83-2.011c-0.21-0.157-0.568-0.041-0.684,0.179c-0.138,0.262-0.045,0.517,0.179,0.684
										c-0.128-0.095,0.015,0.019,0.043,0.048c0.017,0.018,0.033,0.037,0.05,0.056c0.073,0.078-0.062-0.096-0.004-0.005
										c0.028,0.044,0.057,0.087,0.082,0.133c0.01,0.018,0.02,0.037,0.03,0.056c0.01,0.019,0.019,0.038,0.028,0.058
										c0.022,0.049,0.018,0.039-0.012-0.03c0.022-0.003,0.088,0.288,0.095,0.319c0.007,0.033,0.012,0.067,0.019,0.1
										c0.018,0.098-0.004-0.031-0.004-0.031c0.022,0.012,0.014,0.176,0.014,0.205c0.002,0.063,0,0.125-0.003,0.188
										c-0.002,0.028-0.005,0.057-0.007,0.085c-0.008,0.119,0.023-0.115,0,0.001c-0.024,0.121-0.054,0.236-0.093,0.352
										c-0.034,0.102,0.043-0.074,0.007-0.015c-0.014,0.022-0.023,0.049-0.035,0.072c-0.025,0.047-0.054,0.09-0.081,0.135
										c-0.056,0.093,0.077-0.081,0.003-0.002c-0.015,0.017-0.029,0.034-0.045,0.05c-0.023,0.024-0.048,0.045-0.071,0.069
										c-0.073,0.073,0.081-0.049,0.001,0.001c-0.047,0.029-0.102,0.054-0.147,0.085c-0.054,0.037,0.118-0.038,0.021-0.01
										c-0.029,0.008-0.057,0.019-0.086,0.026c-0.019,0.005-0.039,0.008-0.058,0.013c-0.104,0.027,0.122-0.005,0.015-0.001
										c-0.06,0.002-0.119,0.002-0.179,0c-0.103-0.003,0.093,0.025,0.029,0.004c-0.023-0.008-0.05-0.009-0.074-0.015
										c-0.025-0.006-0.121-0.053-0.145-0.046c0.043-0.014,0.095,0.045,0.007,0c-0.019-0.009-0.037-0.019-0.055-0.03
										c-0.027-0.016-0.053-0.034-0.08-0.05c-0.088-0.053,0.071,0.066-0.001,0.001c-0.045-0.04-0.089-0.08-0.129-0.124
										c-0.015-0.017-0.046-0.042-0.054-0.063c0.012,0.016,0.025,0.031,0.037,0.047c-0.013-0.019-0.026-0.037-0.038-0.057
										c-0.032-0.049-0.058-0.101-0.085-0.153c-0.044-0.085,0.002,0.014,0.007,0.02c-0.024-0.026-0.035-0.1-0.045-0.134
										c-0.016-0.057-0.027-0.115-0.039-0.173c-0.025-0.119,0.005,0.113,0-0.009c-0.001-0.024-0.004-0.048-0.005-0.071
										c-0.003-0.06-0.003-0.12,0-0.18c0.002-0.036,0.005-0.072,0.008-0.108c0.007-0.113-0.019,0.093,0.001-0.01
										c0.028-0.142,0.065-0.275,0.113-0.411c0.04-0.113-0.051,0.097,0.005-0.009c0.016-0.03,0.03-0.062,0.047-0.092
										c0.032-0.06,0.07-0.115,0.106-0.172c0.061-0.097-0.074,0.081,0.001-0.003c0.025-0.028,0.049-0.056,0.075-0.083
										c0.018-0.019,0.037-0.037,0.056-0.055c0.015-0.014,0.031-0.028,0.047-0.041c-0.057,0.043-0.071,0.054-0.041,0.032
										c0.049-0.026,0.108-0.06,0.154-0.092c0.052-0.037-0.12,0.038-0.025,0.011c0.038-0.011,0.074-0.023,0.112-0.031
										c0.256-0.057,0.43-0.367,0.349-0.615C430.373,338.787,430.119,338.645,429.845,338.706L429.845,338.706z"/>
								</g>
							</g>
							<g>
								<g>
									<path style="fill:#38303B;" d="M453.393,333.697c0-0.432,0-0.864,0-1.296c0-0.406,0.121-1.01-0.197-1.319
										c-0.363-0.353-0.911-0.61-1.35-0.86c-0.474-0.27-0.961-0.518-1.459-0.741c-0.994-0.445-2.025-0.805-3.087-1.05
										c-2.046-0.472-4.159-0.525-6.226-0.161c-2.062,0.363-4.303,1.136-6.02,2.364c-0.46,0.328-0.363,0.899-0.393,1.419
										c-0.029,0.513-0.058,1.026-0.087,1.539c-0.036,0.643,0.964,0.641,1,0c0.046-0.822,0.093-1.645,0.139-2.467
										c-0.082,0.144-0.165,0.288-0.248,0.432c2.576-1.635,5.551-2.59,8.617-2.528c3.079,0.062,6.033,1.144,8.557,2.879
										c-0.082-0.144-0.165-0.288-0.248-0.432c0,0.741,0,1.482,0,2.222C452.393,334.341,453.393,334.342,453.393,333.697
										L453.393,333.697z"/>
								</g>
							</g>
						</g>
					</g>
					<g>
						<g>
							<path style="fill:#86514D;" d="M429.291,266.966c3.051,11.302,4.589,18.174,7.11,28.932c0.936,3.992,3.7,15.267,4.541,19.253
								c0.961,4.557-2.815,7.276-5.167,0.79c-1.903-5.248-3.894-9.208-5.682-13.84c-4.883-12.653-9.912-22.56-12.932-36.958"/>
						</g>
					</g>
					<g>
						<path style="fill:#86514D;" d="M366.703,417.76c0.319,1.965,0.638,3.93,0.957,5.894c0.062,0.382,0.124,0.771,0.075,1.155
							c-0.193,1.501-1.92,2.316-2.587,3.679c-0.071,0.145-0.131,0.303-0.116,0.464c0.046,0.513,0.724,0.667,1.247,0.686
							c1.53,0.056,3.06,0.112,4.59,0.168c0.578,0.021,1.261-0.007,1.582-0.48c0.145-0.213,0.182-0.477,0.216-0.732
							c0.494-3.712,0.988-7.425,1.482-11.137"/>
					</g>
					<g>
						<g>
							<path style="fill:#86514D;" d="M408.291,417.76c-0.314,1.965-0.628,3.93-0.942,5.894c-0.061,0.382-0.122,0.771-0.074,1.155
								c0.19,1.501,1.889,2.316,2.546,3.679c0.07,0.145,0.129,0.303,0.115,0.464c-0.045,0.513-0.712,0.667-1.227,0.686
								c-1.505,0.056-3.011,0.112-4.516,0.168c-0.569,0.021-1.241-0.007-1.557-0.48c-0.142-0.213-0.18-0.477-0.213-0.732
								c-0.486-3.712-0.972-7.425-1.458-11.137"/>
						</g>
						<g>
							<path style="fill:#38303B;" d="M423.652,435.728c-3.746,0.142-6.816,0.254-10.563,0.397
								c-1.146,0.043-2.352,0.074-3.369-0.455c-0.561-0.292-1.12-0.761-1.74-0.636c-0.48,0.097-0.816,0.527-1.256,0.741
								c-0.386,0.188-0.831,0.201-1.26,0.21c-1.31,0.028-2.62,0.056-3.929,0.084c-0.432,0.009-0.909,0.003-1.235-0.281
								c-0.383-0.333-0.407-0.912-0.384-1.42c0.092-2.008,0.456-4.004,1.079-5.915c0.142-0.435,0.352-0.921,0.788-1.056
								c0.402-0.125,0.819,0.102,1.185,0.308c1.484,0.833,3.433,1.423,4.803,0.413c0.356-0.262,0.65-0.622,1.059-0.79
								c0.452-0.187,0.965-0.109,1.446-0.02c4.15,0.764,8.197,2.079,12.003,3.901c0.864,0.413,1.756,0.889,2.269,1.697
								c0.513,0.809,0.475,2.045-0.327,2.569"/>
						</g>
						<g>
							<g>
								<path style="fill:#F09532;" d="M415.857,428.137c-0.864,0.627-1.311,1.587-1.438,2.629
									c-0.014,0.118,0.066,0.273,0.147,0.354c0.087,0.087,0.229,0.152,0.353,0.146c0.298-0.013,0.466-0.221,0.5-0.5
									c0.012-0.094-0.013,0.081-0.002,0.017c0.004-0.022,0.007-0.044,0.011-0.066c0.008-0.05,0.018-0.1,0.028-0.149
									c0.021-0.099,0.046-0.198,0.075-0.296c0.029-0.098,0.064-0.193,0.099-0.289c0.023-0.062-0.006-0.001-0.012,0.025
									c0.006-0.026,0.023-0.053,0.035-0.077c0.021-0.046,0.043-0.092,0.067-0.137c0.044-0.085,0.092-0.168,0.144-0.249
									c0.027-0.043,0.056-0.085,0.085-0.126c0.004-0.006,0.071-0.094,0.022-0.03c-0.044,0.057,0.004-0.004,0.013-0.015
									c0.064-0.078,0.133-0.152,0.206-0.223c0.037-0.035,0.074-0.069,0.113-0.102c0.015-0.013,0.041-0.027,0.052-0.043
									c-0.052,0.04-0.064,0.048-0.034,0.026c0.014-0.01,0.027-0.02,0.041-0.03c0.211-0.153,0.336-0.442,0.179-0.684
									C416.406,428.108,416.084,427.973,415.857,428.137L415.857,428.137z"/>
							</g>
						</g>
						<g>
							<g>
								<path style="fill:#F09532;" d="M412.377,427.129c-0.816,0.826-1.415,1.852-1.733,2.968
									c-0.072,0.251,0.087,0.556,0.349,0.615c0.266,0.061,0.538-0.08,0.615-0.349c0.036-0.125,0.074-0.25,0.117-0.372
									c0.02-0.058,0.041-0.115,0.063-0.173c0.014-0.036,0.028-0.071,0.042-0.107c0.014-0.036,0.023-0.055,0.003-0.008
									c0.103-0.239,0.22-0.472,0.352-0.697c0.128-0.219,0.271-0.426,0.421-0.63c0.05-0.068-0.071,0.088,0.021-0.026
									c0.019-0.024,0.038-0.048,0.058-0.071c0.039-0.047,0.078-0.094,0.119-0.14c0.091-0.104,0.185-0.204,0.282-0.302
									c0.184-0.186,0.2-0.524,0-0.707C412.885,426.947,412.573,426.93,412.377,427.129L412.377,427.129z"/>
							</g>
						</g>
					</g>
					<g>
						<path style="fill:#38303B;" d="M351.352,435.844c3.746,0.142,6.816,0.254,10.563,0.397c1.146,0.044,2.351,0.074,3.369-0.455
							c0.561-0.292,1.12-0.761,1.74-0.636c0.48,0.097,0.816,0.527,1.257,0.741c0.386,0.188,0.831,0.201,1.26,0.21
							c1.31,0.028,2.62,0.056,3.929,0.084c0.432,0.009,0.909,0.003,1.235-0.28c0.383-0.333,0.407-0.912,0.384-1.42
							c-0.092-2.008-0.456-4.004-1.079-5.915c-0.142-0.435-0.352-0.921-0.788-1.056c-0.402-0.125-0.819,0.102-1.186,0.307
							c-1.484,0.833-3.433,1.423-4.803,0.413c-0.356-0.262-0.65-0.622-1.059-0.79c-0.452-0.187-0.965-0.108-1.446-0.02
							c-4.15,0.764-8.197,2.079-12.003,3.901c-0.864,0.413-1.756,0.889-2.269,1.697c-0.513,0.809-0.475,2.045,0.327,2.569"/>
					</g>
					<g>
						<g>
							<path style="fill:#86514D;" d="M379.731,251.615c-8.433-7.492-13.659-11.75-21.805-18.523
								c-3.023-2.514-11.521-9.726-14.568-12.148c-3.483-2.769-6.901-0.361-2.247,4.499c3.766,3.932,6.437,7.418,9.728,10.99
								c8.989,9.756,15.656,18.521,26.667,27.255"/>
						</g>
						<g>
							<g>
								<path style="fill:#86514D;" d="M344.056,221.528c-1.956-2.131-2.251-3.951-3.002-5.926c-0.532-1.4-1.31-2.671-2.082-3.928
									c-1.245-2.029-2.489-4.058-3.734-6.087c-0.13-0.212-0.312-0.452-0.523-0.413c-0.294,0.054-0.281,0.541-0.199,0.884
									l0.911,3.781c0.016,0.068-0.047,0.115-0.096,0.07c-2.162-2.017-4.802-4.151-6.138-4.779
									c-0.488-0.172-0.598,0.302-0.338,0.736l5.137,5.822c0.057,0.065-0.01,0.163-0.076,0.111l-4.562-3.587
									c-0.586-0.461-1.194-0.932-1.858-1.151c-0.219-0.072-0.428,0.145-0.36,0.397c0.168,0.625,0.6,1.084,1.048,1.551
									c2.622,2.734,4.407,4.657,4.353,4.802c-0.109,0.105-2.685-2.119-4.39-3.526c-0.379-0.313-0.871-0.629-1.267-0.615
									c-0.392,0.014-0.504,0.387-0.253,0.76c1.345,1.993,2.79,3.505,4.57,4.988c0.066,0.055,0.013,0.166-0.058,0.121
									c0,0-3.812-3.323-4.186-2.642c-0.296,0.539,0.509,1.397,1.01,1.921c2.745,2.867,6.964,6.567,10.371,8.33
									c2.121,1.097,2.768,1.956,3.167,2.443"/>
							</g>
							<g>
								<g>
									<path style="fill:#794642;" d="M339.779,221.039c-1.558-2.256-1.886-5.07-2.179-7.727c-0.049-0.448-0.759-0.453-0.709,0
										c0.306,2.778,0.647,5.724,2.276,8.085C339.425,221.77,340.039,221.416,339.779,221.039L339.779,221.039z"/>
								</g>
							</g>
						</g>
					</g>
					<path style="fill:#2E3C87;" d="M394.048,329.169h-1.589l-10.954,45.563l-5.821,43.518c-0.04,0.3-0.291,0.526-0.594,0.534
						l-9.205,0.255c-0.452,0.012-0.819-0.362-0.797-0.814l2.169-45.329l8.012-59.501l2.825-10.887l34.721,1.55l1.17,13.917
						l-1.686,57.338l-2.84,43.256c-0.03,0.452-0.413,0.799-0.865,0.783l-7.706-0.264c-0.44-0.015-0.794-0.368-0.809-0.809
						l-1.522-43.231L394.048,329.169z"/>
					<g>
						<g>
							<path style="fill:#38303B;" d="M399.003,228.148c-0.372-0.723-1.12-1.203-1.927-1.264c-0.831-0.062-1.636,0.378-2.097,1.055
								c-0.108,0.158-0.03,0.393,0.127,0.485c0.175,0.102,0.377,0.031,0.485-0.127c0.327-0.48,0.91-0.747,1.485-0.704
								c0.564,0.042,1.061,0.42,1.315,0.912C398.6,228.911,399.212,228.553,399.003,228.148L399.003,228.148z"/>
						</g>
					</g>
					<g>
						<g>
							<path style="fill:#38303B;" d="M406.534,229.212c0.365-0.445,0.938-0.708,1.517-0.625c0.546,0.078,1.061,0.467,1.27,0.981
								c0.072,0.177,0.236,0.303,0.436,0.247c0.168-0.046,0.32-0.257,0.248-0.436c-0.302-0.743-0.957-1.343-1.765-1.476
								c-0.816-0.135-1.678,0.163-2.207,0.807c-0.121,0.148-0.145,0.357,0,0.501C406.158,229.337,406.412,229.361,406.534,229.212
								L406.534,229.212z"/>
						</g>
					</g>
					<g style="opacity:0.46;">
						<g>
							<path style="fill:#F2E2C8;" d="M413.518,329.668c-2.306-2.233-3.775-5.2-4.452-8.318c-0.137-0.633-1.108-0.365-0.971,0.268
								c0.712,3.278,2.289,6.416,4.711,8.762C413.272,330.831,413.985,330.12,413.518,329.668L413.518,329.668z"/>
						</g>
					</g>
					<g style="opacity:0.46;">
						<g>
							<path style="fill:#F2E2C8;" d="M379.603,320.047c-1.182,3.182-2.88,6.426-5.865,8.251c-0.552,0.337-0.047,1.209,0.508,0.869
								c3.222-1.97,5.05-5.415,6.328-8.853C380.8,319.706,379.827,319.444,379.603,320.047L379.603,320.047z"/>
						</g>
					</g>
					<g style="opacity:0.46;">
						<g>
							<path style="fill:#F2E2C8;" d="M375.616,414.46c-3.275,0.119-6.554,0.027-9.83,0.045c-0.648,0.004-0.649,1.01,0,1.007
								c3.276-0.018,6.555,0.074,9.83-0.045C376.262,415.443,376.265,414.436,375.616,414.46L375.616,414.46z"/>
						</g>
					</g>
					<g style="opacity:0.46;">
						<g>
							<path style="fill:#F2E2C8;" d="M409.047,415.36c-2.888-0.04-5.773-0.222-8.657-0.376c-0.648-0.034-0.646,0.972,0,1.007
								c2.884,0.154,5.768,0.336,8.657,0.376C409.696,416.376,409.696,415.369,409.047,415.36L409.047,415.36z"/>
						</g>
					</g>
					<g>
						<path style="fill:#F2E2C8;" d="M425.862,261.105c-5.218-4.001-9.282-6.877-17.282-7.682c-4.076-0.41-11.264-2.17-16.74-2.79
							c-0.607-0.069-13.507-3.807-14.054-3.513c-0.433,0.233-1.151-0.68-3.307,2.377c-1.624,2.302-3.353,4.539-4.09,7.32
							c-0.738,2.781-1.496,3.946,0.474,5.907c2.023,2.014,6.551,4.546,7.764,7.213c0.653,1.436,0.447,3.134,0.226,4.716
							c-1.919,13.725-3.839,27.45-5.758,41.174c-0.131,0.936-0.233,1.995,0.316,2.732c0.566,0.759,1.584,0.859,2.486,0.899
							c12.296,0.545,24.592,1.091,36.887,1.636c0.793,0.035,1.665,0.043,2.276-0.504c0.696-0.622,0.789-1.718,0.828-2.693
							c0.519-13.004,2.394-26.555,2.509-39.571c1.724-1.901,0.823,3.06,3.116,2.086c1.074-0.456,7.852-8.436,8.35-9.567
							C431.776,266.498,426.257,261.409,425.862,261.105z"/>
					</g>
					<g>
						<path id="hair_1_" style="fill:#38303B;" d="M407.314,236.329c2.526-0.926,4.447-2.996,5.62-5.321
							c1.173-2.325,1.675-4.906,2.041-7.467c0.185-1.294,0.265-2.801-0.726-3.711c-0.511-0.47-1.216-0.681-1.894-0.878
							c-3.156-0.917-5.496-1.38-8.775-1.685c-3.279-0.305-7.545-0.412-10.421,1.094c-0.425,0.223-0.853,0.485-1.097,0.884
							c-0.245,0.4-0.274,0.885-0.294,1.35c-0.14,3.15-0.161,6.399,1.044,9.346c1.205,2.946,3.915,5.549,7.212,5.813"/>
						<g id="head_8_">
							<g>
								<path style="fill:#86514D;" d="M396.076,253.279c-0.827-0.532-1.238-1.515-1.047-2.48c0.619-3.125,1.688-8.326,2.099-10.487
									c0.024-0.126,0.05-0.256,0.124-0.357c0.128-0.174,0.359-0.211,0.565-0.225c1.716-0.117,3.43,0.375,5.142,0.196
									c1.4-0.147,2.831-0.737,4.171-0.299c0.136,0.044,0.276,0.105,0.359,0.227c0.1,0.145,0.095,0.342,0.085,0.524
									c-0.045,0.801-0.124,1.599-0.203,2.397c-0.204,2.067-0.599,6.742-0.861,9.601c-0.081,0.885-0.637,1.658-1.46,1.993
									c-1.097,0.446-2.757,0.916-4.542,0.693C398.811,254.848,397.171,253.984,396.076,253.279z"/>
								<path style="fill:#794642;" d="M407.49,239.853c-0.083-0.122-0.224-0.182-0.359-0.227c-1.34-0.437-2.771,0.153-4.171,0.299
									c-1.712,0.179-3.426-0.313-5.142-0.196c-0.206,0.014-0.437,0.05-0.565,0.225c-0.074,0.101-0.1,0.232-0.124,0.357
									c-0.242,1.271-0.483,2.543-0.725,3.814c1.359,1.024,2.899,1.752,4.549,1.978c2.264,0.31,4.719-0.464,6.307-2.194
									c0.038-0.379,0.075-0.758,0.112-1.137c0.079-0.798,0.158-1.596,0.203-2.397C407.585,240.195,407.589,239.998,407.49,239.853
									z"/>
							</g>
							<g>
								<path style="fill:#86514D;" d="M413.039,232.048c-0.634,7.538-6.612,13.19-11.481,12.78
									c-4.869-0.409-9.819-6.98-9.186-14.518c0.634-7.538,6.501-11.861,11.369-11.452
									C408.61,219.268,413.672,224.51,413.039,232.048z"/>
								<g>
									<path style="fill:#86514D;" d="M412.227,234.938c1.304-0.262,2.494-1.224,2.704-2.478c0.21-1.254-0.809-2.657-2.143-2.692"
										/>
									<path style="fill:#86514D;" d="M393.012,233.322c-1.242-0.476-2.255-1.624-2.253-2.895
										c0.002-1.271,1.241-2.485,2.562-2.296"/>
								</g>
							</g>
						</g>
						<g>
							<path style="fill:#38303B;" d="M400.175,225.669c0.071,0.092-0.023,0.246-0.133,0.262s-0.212-0.052-0.307-0.114
								c-1.151-0.751-2.63-0.87-3.887-0.313c-0.193,0.085-0.39,0.188-0.596,0.178c-0.207-0.01-0.423-0.18-0.412-0.408
								c0.005-0.098,0.049-0.188,0.1-0.269c0.217-0.341,0.56-0.561,0.911-0.714c1.135-0.493,2.47-0.363,3.49,0.341
								c0.382,0.263,0.733,0.624,0.868,1.099"/>
							<path style="fill:#38303B;" d="M405.604,226.126c-0.085,0.079-0.018,0.247,0.087,0.281c0.106,0.034,0.218-0.016,0.322-0.061
								c1.26-0.548,2.739-0.419,3.885,0.34c0.176,0.117,0.353,0.25,0.558,0.275c0.205,0.025,0.447-0.107,0.474-0.333
								c0.012-0.097-0.017-0.194-0.054-0.282c-0.157-0.373-0.458-0.647-0.779-0.856c-1.036-0.676-2.374-0.77-3.498-0.246
								c-0.42,0.196-0.827,0.493-1.039,0.938"/>
						</g>
						<g>
							<path style="fill:#794642;" d="M410.828,235.515c-0.101,1.197-1.202,2.082-2.459,1.976c-1.257-0.106-2.195-1.162-2.094-2.359
								c0.101-1.197,1.202-2.082,2.459-1.976C409.991,233.262,410.929,234.318,410.828,235.515z"/>
							<path style="fill:#794642;" d="M398.429,234.472c-0.101,1.197-1.201,2.082-2.459,1.976c-1.257-0.106-2.195-1.162-2.094-2.359
								c0.101-1.197,1.202-2.081,2.459-1.976C397.592,232.219,398.529,233.275,398.429,234.472z"/>
						</g>
						<g>
							<path style="fill:#38303B;" d="M408.652,229.682c-0.063,0.747-0.461,1.323-0.889,1.287c-0.428-0.036-0.724-0.671-0.661-1.418
								c0.063-0.747,0.461-1.324,0.889-1.288C408.419,228.3,408.715,228.935,408.652,229.682z"/>
							<g>
								<path style="fill:#38303B;" d="M397.803,228.77c-0.063,0.747-0.461,1.323-0.889,1.287c-0.428-0.036-0.724-0.671-0.661-1.418
									c0.063-0.747,0.461-1.323,0.889-1.287C397.569,227.388,397.865,228.023,397.803,228.77z"/>
							</g>
						</g>
						<g>
							<path style="fill:#E66E60;" d="M405.215,238.616c-1.901,2.229-3.688,2.634-5.847,1.897c-0.792-0.27-1.946-1.748-2.186-2.7
								c2.542,1.707,5.312,2.053,8.083,0.654"/>
							<path style="fill:#FFFFFF;" d="M405.215,238.616c-1.847,1.067-3.985,1.27-6.728,0.285c-0.621-0.223-1.228-0.607-1.499-1.186
								c2.592,1.108,5.779,1.4,8.495,0.656L405.215,238.616z"/>
						</g>
						<g>
							<path style="fill:#38303B;" d="M414.579,225.626c-3.113-0.708-5.887-2.888-7.414-5.828c0.042,1.218,0.309,2.426,0.783,3.534
								c-5.742-1.149-11.719-1.034-17.439,0.335c-0.19,0.046-0.397,0.091-0.573,0.003c-0.305-0.153-0.331-0.593-0.305-0.95
								c0.206-2.792,1.032-5.674,2.961-7.615c1.011-1.017,2.269-1.72,3.566-2.262c4.381-1.829,9.481-1.855,13.678,0.328
								c4.197,2.184,7.332,6.664,7.688,11.599"/>
						</g>
						<g>
							<g>
								<path style="fill:#794642;" d="M402.235,227.434c-0.37,1.748-0.739,3.495-1.109,5.243c-0.091,0.431-0.182,0.862-0.274,1.293
									c-0.073,0.343-0.235,0.757-0.05,1.089c0.181,0.326,0.522,0.344,0.855,0.363c0.431,0.023,0.861,0.047,1.292,0.07
									c0.643,0.035,0.641-0.965,0-1c-0.363-0.02-0.725-0.04-1.088-0.059c-0.091-0.005-0.181-0.01-0.272-0.015
									c-0.257-0.048-0.217,0.059,0.121,0.321c0.053-0.031,0.074-0.35,0.091-0.431c0.157-0.742,0.314-1.484,0.471-2.226
									c0.309-1.46,0.618-2.921,0.927-4.381C403.333,227.072,402.369,226.803,402.235,227.434L402.235,227.434z"/>
							</g>
						</g>
					</g>
				</g>
				<g>
					<path style="fill:#86514D;" d="M436.125,316.392c1.663,3.951,3.044,8.365,3.305,12.554c0.506-0.69,1.963-0.942,2.783-0.522
						c0.821,0.42,0.567,1.134,0.398,1.933c-0.121,0.573-0.561,1.142-1.229,1.282c0.767,1.272,2.736,1.64,4.416,1.505
						c0.868-0.07,1.766-0.25,2.42-0.738c1.284-0.957,1.146-2.739,0.324-4.009c-0.822-1.27-2.162-2.238-3.164-3.412
						c-0.758-0.888-1.315-1.886-1.84-2.888c-1.729-3.299-2.309-6.887-3.412-10.374"/>
				</g>
				<g>
					<g>
						<path style="fill:#F09532;" d="M358.642,429.117c0.013,0.01,0.094,0.068,0.031,0.022c-0.058-0.042,0.004,0.005,0.016,0.014
							c0.039,0.033,0.077,0.066,0.114,0.101c0.073,0.07,0.143,0.144,0.208,0.221c0.013,0.016,0.026,0.039,0.043,0.052
							c-0.038-0.031-0.05-0.067-0.007-0.007c0.03,0.041,0.059,0.083,0.086,0.125c0.055,0.085,0.106,0.173,0.153,0.263
							c0.021,0.04,0.041,0.081,0.06,0.122c0.012,0.026,0.023,0.052,0.035,0.077c0.028,0.062-0.034-0.089-0.011-0.026
							c0.035,0.096,0.071,0.191,0.101,0.288c0.029,0.097,0.055,0.196,0.076,0.295c0.011,0.049,0.02,0.099,0.029,0.149
							c0.004,0.022,0.007,0.044,0.011,0.066c0.02,0.117-0.014-0.118,0,0c0.017,0.137,0.045,0.252,0.146,0.353
							c0.087,0.087,0.229,0.152,0.354,0.147c0.244-0.011,0.534-0.222,0.5-0.5c-0.127-1.041-0.574-2.002-1.438-2.629
							c-0.212-0.154-0.567-0.043-0.684,0.179C358.326,428.692,358.416,428.952,358.642,429.117L358.642,429.117z"/>
					</g>
				</g>
				<g>
					<g>
						<path style="fill:#F09532;" d="M361.92,427.952c0.092,0.092,0.181,0.187,0.267,0.285c0.04,0.046,0.08,0.093,0.119,0.14
							c0.024,0.03,0.048,0.059,0.072,0.089c0.023,0.029,0.038,0.048,0.007,0.008c0.158,0.207,0.303,0.424,0.434,0.649
							c0.128,0.219,0.238,0.445,0.342,0.676c0.035,0.077-0.042-0.107,0.012,0.029c0.011,0.028,0.023,0.057,0.034,0.085
							c0.022,0.057,0.043,0.115,0.064,0.172c0.046,0.13,0.087,0.262,0.125,0.394c0.072,0.251,0.356,0.433,0.615,0.349
							c0.256-0.083,0.426-0.346,0.349-0.615c-0.318-1.117-0.917-2.143-1.733-2.969c-0.184-0.186-0.525-0.198-0.707,0
							C361.736,427.446,361.723,427.754,361.92,427.952L361.92,427.952z"/>
					</g>
				</g>
			</g>
			<g>
				<path style="fill:#FFFFFF;stroke:#777776;stroke-width:0.9921;stroke-miterlimit:10;" d="M375.938,142.156h-39.139
					c-6.485,0-11.742,5.257-11.742,11.742v33.92c0,6.485,5.257,11.742,11.742,11.742h25.634l17.091,18.747
					c0.669,0.734,1.879,0.113,1.673-0.858l-3.807-17.988c5.798-0.717,10.289-5.651,10.289-11.643v-33.92
					C387.68,147.413,382.423,142.156,375.938,142.156z"/>
				<path style="fill:#EFB93F;" d="M356.828,150.807c-6.684-0.05-12.147,5.737-12.201,12.927c-0.054,7.19,11.904,26.36,11.904,26.36
					s12.247-18.988,12.301-26.177C368.887,156.727,363.512,150.857,356.828,150.807z M356.684,169.869
					c-3.594-0.027-6.486-3.015-6.458-6.674c0.028-3.659,2.964-6.603,6.558-6.576c3.594,0.027,6.485,3.016,6.458,6.674
					C363.214,166.952,360.278,169.896,356.684,169.869z"/>
			</g>
		</g>
		<g>
			<g>
				<g>
					<path style="fill:#38303B;" d="M130.355,227.023c-2.363-5.453-9.499-8.339-15.308-7.083
						c-5.809,1.256-10.408,6.054-12.646,11.559c-1.933,4.755-2.334,9.993-3.941,14.867c-1.369,4.152-3.619,8.012-6.557,11.249
						c-2.685,2.959-5.963,5.438-8.045,8.848c-2.705,4.429-3.021,10.224-0.816,14.922c2.205,4.698,6.867,8.156,12.002,8.904
						c5.385,0.785,11.011-1.226,16.251,0.241c2.663,0.746,5.067,2.36,7.802,2.766c4.724,0.701,9.417-2.565,11.475-6.874
						c2.058-4.309,1.892-9.383,0.779-14.027c-1.206-5.033-3.47-9.871-3.68-15.042c-0.233-5.73,1.153-9.509,1.658-15.222
						C129.773,237.12,133.684,234.706,130.355,227.023z"/>
				</g>
				<g>
					<g>
						<path style="fill:#F7B094;" d="M138.546,428.986c-0.141-1.957-0.282-3.914-0.423-5.871c-0.055-0.767-0.133-1.588-0.665-2.181
							c-0.932-1.041-2.709-0.876-4.171-0.617c-0.526,0.093-1.099,0.212-1.431,0.595c-0.416,0.479-0.288,1.162-0.139,1.752
							c0.667,2.64,1.334,5.281,2.001,7.921"/>
						<g>
							<path style="fill:#38303B;" d="M152.903,436.375c-3.591,0.051-6.534,0.089-10.125,0.14c-1.098,0.016-9.81-0.313-11.065-0.316
								c-0.414-0.001-0.87-0.017-1.176-0.297c-0.36-0.328-0.369-0.883-0.335-1.368c0.133-1.921,0.527-3.824,1.168-5.641
								c0.146-0.413,0.358-0.874,0.779-0.994c0.387-0.111,0.782,0.116,1.128,0.321c1.402,0.832,1.499,0.827,3.191,0.496
								c0.416-0.081,2.037-0.572,2.432-0.724c0.437-0.168,0.926-0.082,1.385,0.014c3.957,0.826,7.804,2.177,11.408,4.008
								c0.818,0.416,1.661,0.891,2.134,1.677c0.473,0.786,0.408,1.969-0.371,2.453"/>
						</g>
					</g>
					<g>
						<path style="fill:#F7B094;" d="M59.845,414.822c1.611-1.12,3.221-2.241,4.832-3.362c0.631-0.439,1.319-0.893,2.147-0.809
							c1.452,0.147,2.56,1.792,3.375,3.223c0.293,0.515,0.6,1.087,0.535,1.618c-0.081,0.665-0.698,0.988-1.258,1.233
							c-2.504,1.099-5.009,2.197-7.513,3.296"/>
						<g>
							<path style="fill:#38303B;" d="M63.438,435.638c-1.735-3.145-3.154-5.723-4.889-8.868c-0.531-0.962-4.34-8.803-4.928-9.912
								c-0.194-0.366-0.394-0.776-0.292-1.177c0.12-0.472,0.605-0.741,1.05-0.94c1.758-0.787,3.622-1.335,5.526-1.624
								c0.433-0.066,0.939-0.095,1.244,0.22c0.28,0.29,0.266,0.744,0.248,1.147c-0.074,1.629-0.024,1.712,1.064,3.049
								c0.267,0.328,1.463,1.528,1.783,1.805c0.354,0.306,0.508,0.779,0.64,1.228c1.134,3.88,1.752,7.91,1.832,11.952
								c0.018,0.917-0.005,1.885-0.476,2.672s-1.545,1.287-2.339,0.827"/>
						</g>
					</g>
					<g>
						<g>
							<path style="fill:#2E3C87;" d="M109.822,335.03c6.156,27.83,11.65,57.05,20.152,84.156c0.676,2.154,1.643,5.859,2.665,6.003
								c1.429,0.201,2.659,0.032,4.012-0.212c1.118-0.202,1.9-1.207,1.794-2.329c-3.865-41.04-2.782-82.359-11.91-122.423
								c-0.323-1.417-18.561,0.594-18.561,0.594"/>
						</g>
						<g>
							<path style="fill:#415299;" d="M66.527,416.972c0.242,0.709,1.056,1.056,1.725,0.719c9.779-4.93,18.401-13.299,25.619-23.736
								c10.598-15.323,17.127-27.482,23.012-45.701c4.526-14.01,8.361-28.712,7.107-43.464c-6.719,0.404-13.422,1.17-20.073,2.294
								c-1.359,0.23-1.674,0.328-2.647,1.378c-0.932,1.005-1.447,3.625-1.699,5.018c-2.87,15.801-3.397,31.262-6.802,46.941
								c-4.117,18.957-12.986,38.736-27.47,50.395c-0.409,0.329-0.572,0.873-0.403,1.37L66.527,416.972z"/>
						</g>
					</g>
				</g>
				<g>
					<path style="fill:#EFB93F;" d="M96.028,320.291l0.728,3.473c0.271,1.293,1.639,2.253,3.262,2.283
						c9.886,0.185,19.776,0.262,29.665,0.232c0.792-0.002,1.666-0.03,2.245-0.468c0.493-0.372,0.641-0.947,0.765-1.483
						c0.35-1.523,0.7-3.046,1.05-4.569"/>
				</g>
				<g>
					<g>
						<path style="fill:#F7B094;" d="M142.425,316.383c1.076,1.795,4.928,9.487,5.418,11.486c0.53,2.162,0.731,4.471,1.835,6.413
							c0.215,0.378,0.964,0.24,1.118-0.196c0.283-0.8,0.432-1.615,0.442-2.415c0.006-0.458,0.758-0.705,1.091-0.364
							c0.249,0.254,0.427,0.586,0.557,0.893c0.81,1.919,1.743,3.332,2.553,5.251c0.342,0.811,0.86,2.045,1.419,2.752
							c0.263,0.333,0.558,0.023,0.568-0.393c0.008-0.359-0.272-1.719-0.187-1.561c0.191,0.352,0.907,0.244,0.896-0.404
							c-0.044-2.741-0.989-6.249-1.796-8.054c-2.03-4.541-7.52-10.495-9.477-15.298"/>
					</g>
					<g>
						<path style="fill:#EFB93F;" d="M120.782,278.279c4.198,13.409,11.389,26.909,20.849,39.14
							c1.022,1.322,1.753,2.391,3.107,2.316c1.897-0.105,5.05-1.118,4.178-3.14c-4.121-9.546-9.898-20.585-11.065-29.928
							c-0.526-4.213-0.744-8.374-1.769-12.67c-1.025-4.296-2.845-9.271-6.301-12.578"/>
					</g>
				</g>
				<g>
					<path style="fill:#F2E2C8;" d="M99.534,323.755c-2.137,0.029-3.787-2.088-4.096-4.203c-0.309-2.115,2.111-6.667,1.794-8.883
						c-0.448-3.133-3.341-30.907,2.92-46.01c1.426-3.441,3.805-6.885,7.412-7.811c1.907-0.49,3.912-0.208,5.878-0.118
						c4.098,0.188,8.444-0.424,12.111,1.414c6.251,3.134,7.333,11.439,7.611,18.426c0.232,5.829,0.465,11.657,0.697,17.486
						c0.29,7.263,2.76,13.927,0.522,19.746c-0.659,1.713,1.643,6.664,0.448,8.057c-1.333,1.553-4.848,0.963-6.894,1.017
						c-8.443,0.222-16.886,0.444-25.329,0.665"/>
				</g>
				<g>
					<path style="fill:#38303B;" d="M135.984,273.038l-0.726-0.727c-0.199-0.199-0.199-0.523,0-0.722l12.134-12.134
						c0.199-0.199,0.523-0.199,0.722,0l0.727,0.727c0.199,0.199,0.199,0.523,0,0.722l-12.134,12.134
						C136.507,273.237,136.183,273.237,135.984,273.038z"/>
					<g>
						<path style="fill:#EFB93F;" d="M115.265,304.504c-1.874,1.544-6.784,4.056-8.792,5.422c-1.501,1.021-4.086-0.061-6.201-2.409
							c-1.459-1.621-2.579-4.862-3.184-6.957c-1.142-3.957-1.531-9.43-1.643-14.246c-0.148-6.354,0.649-12.091,1.319-16.726
							c0.671-4.635,4.087-10.844,7.47-12.09c4.866-1.792,6.962,0.256,7.542,7.444c0.415,5.146-0.821,9.495-1.745,18.186
							c-0.418,3.933-0.933,10.983-0.933,10.983L115.265,304.504z"/>
					</g>
					<g>
						<path style="fill:#F7B094;" d="M123.953,283.039c1.508-1.445,7.258-7.83,8.274-9.62c1.1-1.936,1.933-4.095,3.508-5.674
							c0.307-0.307,0.968,0.016,0.991,0.472c0.041,0.838-0.047,1.656-0.262,2.425c-0.123,0.44,1.49,0.939,1.897,0.698
							c0.304-0.18,5.428-5.341,5.551-5.47c0.276-0.288,0.916-0.003,0.725,0.615c-0.807,2.613-2.671,5.732-3.93,7.255
							c-3.166,3.832-9.963,8.136-13.134,12.237"/>
					</g>
					<g>
						<path style="fill:#EFB93F;" d="M106.285,309.806c2.394-0.404,7.544-3.619,9.78-6.197c3.525-4.067,14.747-17.262,15.059-19.479
							c0.132-0.942-2.897-3.697-4.081-4.94c-0.706-0.742-6.68,6.049-9.839,8.711c-0.979,0.825-6.705,5.173-9.427,7.003"/>
					</g>
					<g>
						<g>
							<path style="fill:none;stroke:#2E3C87;stroke-width:0.2835;stroke-miterlimit:10;" d="M104.684,295.204
								c5.219-0.867,10.726-4.869,21.145-15.605c0.367-0.378,0.978-0.385,1.345-0.007l3.888,4.002"/>
							<path style="fill:none;stroke:#2E3C87;stroke-width:0.2835;stroke-miterlimit:10;" d="M108.422,293.964
								c-1.044-0.726-3.027-1.513-4.293-1.627"/>
						</g>
					</g>
				</g>
				<g>
					<g>
						<path style="fill:#F7B094;" d="M112.327,255.312c0.745-2.852,1.831-7.053,2.341-8.978c0.21-0.792,0.42-1.584,0.657-2.368
							c0.053-0.177,0.117-0.368,0.242-0.479c0.105-0.092,0.232-0.108,0.35-0.11c1.169-0.018,2.06,0.979,3.077,1.541
							c1.244,0.687,2.717,0.727,3.985,1.356c0.153,0.076,0.316,0.18,0.354,0.386c0.022,0.12-0.002,0.253-0.026,0.382
							c-0.44,2.319-0.925,8.686-1.216,11.64c-0.163,1.651-3.128,2.54-6.093,1.651C112.429,259.262,112.03,256.447,112.327,255.312z"
							/>
						<g>
							<path style="fill:#E89C82;" d="M115.566,243.488c0.105-0.092,0.232-0.108,0.35-0.11c1.169-0.018,2.06,0.979,3.077,1.541
								c1.244,0.687,2.717,0.727,3.985,1.356c0.153,0.076,0.316,0.18,0.354,0.386c0.022,0.12-0.002,0.253-0.026,0.382
								c-0.246,1.296-0.492,2.592-0.738,3.889c-1.382,0.577-2.802,0.815-4.136,0.537c-1.83-0.382-3.439-1.864-4.064-4.006
								c0.1-0.376,0.199-0.752,0.299-1.128c0.21-0.792,0.42-1.584,0.657-2.368C115.378,243.789,115.441,243.598,115.566,243.488z"/>
						</g>
					</g>
					<g>
						<path style="fill:#F7B094;" d="M112.696,241.439c-1.699-0.249-3.251-1.218-3.525-2.502c-0.275-1.284,1.052-2.74,2.791-2.796"
							/>
					</g>
					<g>
						<path style="fill:#F7B094;" d="M112.534,241.558c1.783,6.399,6.305,7.219,11.039,8.741c0.837,0.269,2.234,0.383,3.122,0.286
							c2.18-0.239,3.166-2.32,3.594-4.084c0.746-3.07,1.118-6.203,1.108-9.338c-0.007-2.157-0.21-4.367-1.274-6.347
							c-1.064-1.98-3.132-3.711-5.721-4.135c-3.225-0.527-6.441,1.052-8.598,3.065c-3.183,2.971-4.806,7.205-3.487,11.027"/>
					</g>
					<g>
						<path style="fill:#F7B094;" d="M131.392,237.06c0,1.987,0.08,1.658,0.273,2.793c0.021,0.123,0.267,1.093,0.939,1.549
							c0.529,0.359,0.66,1.171,0.194,1.617c-0.259,0.248-0.514,0.358-0.876,0.421c-0.512,0.09-1.012-0.048-1.304-0.471"/>
					</g>
				</g>
				<g>
					<path style="fill:#38303B;" d="M107.892,236.705c4.8-0.448,9.229-2.154,13.243-4.214c1.875-0.962,3.714-2.031,5.001-3.48
						c0.701-0.789,1.221-1.867,0.588-2.728c-0.689-0.937-2.305-1.064-3.641-0.988c-0.968,0.055-1.93,0.156-2.879,0.303
						c-1.602,0.248-3.186,0.632-4.555,1.318c-1.572,0.788-2.792,1.935-3.972,3.075c-1.209,1.169-2.453,2.443-2.608,3.974"/>
				</g>
				<g>
					<g>
						<path style="fill:#38303B;" d="M124.492,233.574c-0.067,0.052,0.015,0.137,0.114,0.145c0.1,0.008,0.195-0.031,0.282-0.066
							c1.067-0.429,2.417-0.508,3.546-0.209c0.173,0.046,0.35,0.101,0.538,0.094c0.188-0.007,0.39-0.104,0.386-0.231
							c-0.001-0.054-0.04-0.105-0.084-0.149c-0.188-0.188-0.495-0.308-0.81-0.39c-1.019-0.265-2.238-0.181-3.185,0.221
							c-0.354,0.15-0.684,0.355-0.82,0.62"/>
					</g>
					<g style="opacity:0.54;">
						<path style="fill:#ED825D;" d="M119.47,241.204c-0.03,1.443,1.223,2.665,2.799,2.73c1.575,0.064,2.877-1.054,2.906-2.497
							c0.03-1.443-1.223-2.666-2.799-2.73C120.801,238.642,119.5,239.76,119.47,241.204z"/>
					</g>
					<path style="fill:#38303B;" d="M126.711,236.79c0.045,0.768,0.451,1.378,0.907,1.364c0.456-0.015,0.79-0.649,0.745-1.417
						c-0.045-0.768-0.451-1.378-0.907-1.364C127,235.388,126.666,236.023,126.711,236.79z"/>
				</g>
			</g>
			<g>
				<path style="fill:#FFFFFF;stroke:#777776;stroke-width:0.9921;stroke-miterlimit:10;" d="M146.324,158.127h39.139
					c6.485,0,11.742,5.257,11.742,11.742v33.92c0,6.485-5.257,11.742-11.742,11.742h-25.634l-17.091,18.747
					c-0.669,0.734-1.878,0.113-1.673-0.858l3.807-17.988c-5.798-0.717-10.29-5.651-10.29-11.643v-33.92
					C134.583,163.384,139.839,158.127,146.324,158.127z"/>
				<path style="fill:#EFB93F;" d="M153.169,179.626c0.054,7.19,12.301,26.177,12.301,26.177s11.958-19.17,11.904-26.36
					c-0.054-7.19-5.517-12.977-12.201-12.927C158.489,166.567,153.115,172.436,153.169,179.626z M158.759,179.002
					c-0.027-3.659,2.864-6.647,6.458-6.674c3.594-0.027,6.53,2.917,6.558,6.576c0.028,3.659-2.864,6.647-6.458,6.674
					C161.723,185.606,158.787,182.661,158.759,179.002z"/>
			</g>
		</g>
	</g>
</g>
</svg>
