<?xml version="1.0" encoding="utf-8"?>
<!-- Generator: Adobe Illustrator 27.5.0, SVG Export Plug-In . SVG Version: 6.00 Build 0)  -->
<svg version="1.1" xmlns="http://www.w3.org/2000/svg" xmlns:xlink="http://www.w3.org/1999/xlink" x="0px" y="0px"
	 viewBox="0 0 500 500" style="enable-background:new 0 0 500 500;" xml:space="preserve">
<g id="BACKGROUND">
	<rect style="fill-rule:evenodd;clip-rule:evenodd;fill:#FFFFFF;" width="500" height="500"/>
</g>
<g id="OBJECTS">
	<g>
		<g>
			<g>
				<polygon style="fill:#ECEBFF;" points="402,222.94 402,356.52 339.2,357.24 331.88,357.32 182.91,359.02 139.4,357.13 
					139.4,243.44 186.25,243.44 186.25,274.93 223,274.93 223,167.49 263.88,167.49 263.88,205.68 271.2,205.68 271.2,183.36 
					283.78,183.36 283.78,161.22 290.17,161.22 290.17,140.11 300.18,140.11 300.18,161.22 309.26,161.22 309.26,183.83 
					318.73,183.83 318.73,225.18 339.7,225.18 339.7,270.8 369.59,270.8 369.59,222.94 				"/>
				<rect x="227.436" y="171.982" style="fill:#FFFFFF;" width="4.99" height="4.127"/>
				<rect x="252.227" y="196.774" style="fill:#FFFFFF;" width="4.99" height="4.127"/>
				<rect x="252.227" y="188.813" style="fill:#FFFFFF;" width="4.99" height="4.127"/>
				<rect x="154.24" y="277.515" style="fill:#FFFFFF;" width="4.99" height="4.127"/>
				<rect x="284.066" y="216.118" style="fill:#FFFFFF;" width="4.99" height="4.127"/>
				<rect x="301.126" y="226.447" style="fill:#FFFFFF;" width="4.99" height="4.127"/>
				<rect x="290.601" y="205.683" style="fill:#FFFFFF;" width="4.99" height="4.127"/>
				<rect x="247.98" y="239.921" style="fill:#FFFFFF;" width="4.99" height="4.127"/>
				<rect x="324.281" y="236.776" style="fill:#FFFFFF;" width="4.99" height="4.127"/>
				<rect x="378.599" y="232.649" style="fill:#FFFFFF;" width="4.99" height="4.127"/>
				<rect x="386.012" y="238.84" style="fill:#FFFFFF;" width="4.99" height="4.127"/>
				<rect x="390.919" y="257.24" style="fill:#FFFFFF;" width="4.99" height="4.127"/>
				<rect x="147.493" y="258.895" style="fill:#FFFFFF;" width="4.99" height="4.127"/>
				<rect x="158.651" y="253.647" style="fill:#FFFFFF;" width="4.99" height="4.127"/>
				<rect x="379.401" y="258.895" style="fill:#FFFFFF;" width="4.99" height="4.127"/>
				<rect x="281.571" y="193.126" style="fill:#FFFFFF;" width="4.99" height="4.127"/>
				<rect x="299.581" y="167.488" style="fill:#FFFFFF;" width="4.99" height="4.127"/>
				<rect x="293.096" y="172.638" style="fill:#FFFFFF;" width="4.99" height="4.127"/>
				<rect x="237.376" y="188.813" style="fill:#FFFFFF;" width="4.99" height="4.127"/>
				<rect x="171.127" y="267.778" style="fill:#FFFFFF;" width="4.99" height="4.127"/>
				<rect x="237.376" y="218.182" style="fill:#FFFFFF;" width="4.99" height="4.127"/>
				<rect x="263.88" y="205.683" style="fill:#CECEF4;" width="7.321" height="152.329"/>
				<polygon style="fill:#CECEF4;" points="192.68,274.93 192.68,358.01 185.36,358.01 185.36,243.44 186.25,243.44 186.25,274.93 
									"/>
				<rect x="331.88" y="225.18" style="fill:#CECEF4;" width="7.32" height="132.83"/>
			</g>
			<path style="fill:#CFC9F7;" d="M431.345,359.017c0,2.461-68.567,4.456-153.148,4.456s-153.148-1.995-153.148-4.456
				c0-2.461,68.567-4.455,153.148-4.455S431.345,356.557,431.345,359.017z"/>
		</g>
		<g>
			<path style="fill:#635489;" d="M178.513,144.488l45.988,160.585c1.671,5.835-1.697,11.908-7.533,13.579l-78.87,22.586
				c-5.835,1.671-11.907-1.697-13.579-7.533L78.532,173.12c-1.671-5.835,1.697-11.907,7.533-13.579l78.87-22.586
				C170.77,135.284,176.842,138.653,178.513,144.488z"/>
			<path style="fill:#423568;" d="M138.098,341.238l-9.45,2.706c-5.826,1.668-11.908-1.697-13.579-7.533L69.082,175.827
				c-1.671-5.835,1.707-11.91,7.533-13.579l9.45-2.706c-5.835,1.671-9.204,7.743-7.533,13.579l45.988,160.585
				C126.191,339.541,132.263,342.909,138.098,341.238z"/>
			<path style="fill:#EBE6FC;" d="M176.363,155.87l40.289,140.685c0.752,2.625-0.764,5.358-3.389,6.109l-80.485,23.049
				c-0.596,0.171-1.194,0.227-1.77,0.174c-1.993-0.168-3.758-1.535-4.339-3.563L86.381,181.639
				c-0.752-2.624,0.765-5.357,3.389-6.109l80.485-23.049C172.879,151.729,175.612,153.245,176.363,155.87z"/>
			<path style="fill:#423568;" d="M178.286,320.733c0.496,1.731-0.506,3.536-2.236,4.031s-3.536-0.506-4.031-2.236
				c-0.496-1.731,0.506-3.536,2.236-4.031C175.985,318.001,177.79,319.002,178.286,320.733z"/>
			<path style="fill:#423568;" d="M134.722,155.798l-16.79,4.808c-0.568,0.163-1.16-0.166-1.322-0.734l0,0
				c-0.162-0.568,0.166-1.16,0.734-1.322l16.791-4.808c0.568-0.163,1.16,0.166,1.322,0.734l0,0
				C135.618,155.044,135.289,155.636,134.722,155.798z"/>
			<g>
				<path style="fill:#635489;" d="M79.129,198.275l-1.599-5.583c-0.163-0.568,0.166-1.16,0.734-1.322l0,0
					c0.568-0.163,1.16,0.166,1.322,0.734l1.599,5.583c0.163,0.568-0.166,1.16-0.734,1.322l0,0
					C79.884,199.171,79.291,198.843,79.129,198.275z"/>
				<path style="fill:#635489;" d="M82.134,208.769l-1.599-5.583c-0.163-0.568,0.166-1.16,0.734-1.322l0,0
					c0.568-0.163,1.16,0.166,1.322,0.734l1.599,5.583c0.163,0.568-0.166,1.16-0.734,1.322l0,0
					C82.889,209.665,82.297,209.337,82.134,208.769z"/>
			</g>
			<path style="fill:#8777B7;" d="M141.109,152.857c0.271,0.946-0.276,1.933-1.223,2.204c-0.946,0.271-1.933-0.277-2.204-1.223
				c-0.271-0.946,0.276-1.933,1.223-2.204C139.851,151.363,140.838,151.911,141.109,152.857z"/>
			<path style="fill:#423568;" d="M112.925,160.928c0.163,0.568-0.166,1.16-0.734,1.322c-0.568,0.163-1.16-0.166-1.322-0.734
				c-0.163-0.568,0.166-1.16,0.734-1.322C112.171,160.032,112.763,160.36,112.925,160.928z"/>
			<polygon style="fill:#FFFFFF;" points="184.146,183.047 132.581,239.557 203.25,249.756 204.459,253.976 196.374,252.807 
				199.958,306.474 196.026,307.6 192.326,252.219 165.644,248.365 148.602,321.181 144.199,322.442 161.664,247.799 
				129.317,243.124 110.038,264.248 108.747,259.739 146.854,217.984 141.731,194.466 91.017,197.828 89.888,193.886 
				140.881,190.517 134.809,162.631 138.664,161.527 150.165,214.363 182.855,178.539 			"/>
			<polygon style="fill:#2ECCC4;" points="186.076,189.786 201.02,241.969 168.922,238.637 162.117,214.872 			"/>
			<path style="fill:#CAC1F4;" d="M158.874,218.912l4.958,18.696c0.173,0.652-0.348,1.279-1.021,1.229l-19.097-1.421
				c-0.792-0.059-1.189-0.985-0.686-1.599l14.139-17.275C157.674,217.923,158.669,218.139,158.874,218.912z"/>
			<path style="fill:#2ECCC4;" d="M116.334,286.234l24.875,5.827l-10.202,33.826c-1.993-0.168-3.758-1.535-4.339-3.563
				L116.334,286.234z"/>
			<polygon style="fill:#CAC1F4;" points="147.37,271.656 142.442,287.974 115.084,281.87 112.849,274.064 119.862,265.21 			"/>
			<polygon style="fill:#CAC1F4;" points="152.539,254.511 148.592,267.604 122.566,261.794 131.116,251.003 			"/>
			<path style="fill:#FFFFFF;" d="M188.733,304.581l0.285,5.026l-32.282,9.245c1.069-5.965,2.394-13.397,2.394-13.397
				L188.733,304.581z"/>
			<g>
				<path style="opacity:0.45;fill:#635489;" d="M191.115,300.028l-42.96,12.303c-1.764,0.505-3.603-0.515-4.108-2.279l-0.784-2.738
					c-0.505-1.764,0.515-3.603,2.279-4.109l42.96-12.303c1.764-0.505,3.603,0.515,4.109,2.279l0.784,2.738
					C193.899,297.684,192.879,299.523,191.115,300.028z"/>
				<path style="fill:#FFA329;" d="M191.913,298.59l-42.96,12.303c-1.764,0.505-3.603-0.515-4.108-2.279l-0.784-2.738
					c-0.505-1.764,0.515-3.603,2.279-4.109l42.96-12.303c1.764-0.505,3.603,0.515,4.109,2.279l0.784,2.738
					C194.697,296.245,193.677,298.084,191.913,298.59z"/>
				<g>
					<path style="fill:#FFFFFF;" d="M164.101,302.798c-0.047,0.175-0.146,0.331-0.296,0.47c-0.15,0.138-0.35,0.244-0.6,0.315
						c-0.376,0.108-0.712,0.104-1.008-0.009c-0.296-0.113-0.502-0.332-0.618-0.654l0.863-0.247c0.049,0.123,0.122,0.209,0.22,0.26
						c0.098,0.051,0.207,0.059,0.328,0.025c0.104-0.03,0.178-0.082,0.222-0.156c0.044-0.074,0.052-0.158,0.025-0.253
						c-0.024-0.085-0.073-0.148-0.144-0.189c-0.072-0.041-0.154-0.068-0.246-0.081c-0.093-0.013-0.219-0.023-0.379-0.032
						c-0.233-0.012-0.426-0.033-0.58-0.063c-0.154-0.03-0.298-0.097-0.433-0.204c-0.135-0.107-0.233-0.268-0.295-0.482
						c-0.057-0.199-0.056-0.386,0.004-0.56c0.059-0.174,0.167-0.326,0.324-0.454c0.156-0.129,0.35-0.226,0.581-0.292
						c0.373-0.107,0.694-0.103,0.965,0.011c0.27,0.114,0.464,0.322,0.581,0.623l-0.877,0.251c-0.047-0.106-0.113-0.182-0.196-0.229
						c-0.083-0.046-0.18-0.053-0.291-0.022c-0.095,0.027-0.164,0.074-0.208,0.141c-0.044,0.067-0.052,0.15-0.024,0.248
						c0.023,0.079,0.068,0.139,0.136,0.179c0.068,0.04,0.146,0.066,0.235,0.079c0.089,0.012,0.215,0.024,0.379,0.035
						c0.236,0.012,0.432,0.033,0.588,0.065c0.156,0.032,0.303,0.103,0.44,0.21c0.137,0.108,0.237,0.271,0.299,0.489
						C164.147,302.448,164.148,302.624,164.101,302.798z"/>
					<path style="fill:#FFFFFF;" d="M166.455,298.99l0.184,0.644l-0.91,0.261l0.775,2.707l-0.815,0.234l-0.775-2.707l-0.901,0.258
						l-0.185-0.644L166.455,298.99z"/>
					<path style="fill:#FFFFFF;" d="M169.847,300.984l-1.256,0.36l-0.033,0.671l-0.854,0.244l0.275-3.679l0.934-0.267l2.181,2.976
						l-0.863,0.247L169.847,300.984z M169.462,300.427l-0.77-1.113l-0.069,1.353L169.462,300.427z"/>
					<path style="fill:#FFFFFF;" d="M173.316,300.652l-1.088-1.058l-0.185,0.053l0.362,1.266l-0.811,0.232l-0.96-3.352l1.384-0.396
						c0.266-0.076,0.503-0.095,0.713-0.055c0.21,0.039,0.383,0.125,0.52,0.259c0.137,0.133,0.235,0.303,0.294,0.508
						c0.07,0.243,0.062,0.469-0.024,0.678s-0.247,0.382-0.485,0.519l1.174,1.089L173.316,300.652z M171.885,299.092l0.503-0.144
						c0.161-0.046,0.27-0.116,0.325-0.209c0.056-0.093,0.064-0.209,0.024-0.348c-0.038-0.133-0.107-0.226-0.206-0.28
						c-0.099-0.053-0.228-0.058-0.386-0.013l-0.502,0.144L171.885,299.092z"/>
					<path style="fill:#FFFFFF;" d="M176.249,296.185l0.185,0.645l-0.91,0.261l0.775,2.707l-0.815,0.233l-0.775-2.707l-0.901,0.258
						l-0.185-0.644L176.249,296.185z"/>
				</g>
			</g>
			<path style="fill:#2ECCC4;" d="M105.065,171.15l0.982,17.704l-17.161,1.534l-2.505-8.748c-0.752-2.624,0.765-5.357,3.389-6.109
				L105.065,171.15z"/>
			<polygon style="fill:#CAC1F4;" points="130.618,163.832 136.339,186.097 112.107,188.293 110.958,169.462 			"/>
			<path style="fill:#FF4F84;" d="M160.789,167.737c-3.104,0.889-7.492,5.221-5.795,11.145c1.34,4.679,7.487,6.518,10.559,9.031
				c0.65,0.529,1.603,0.256,1.875-0.537c1.277-3.757,5.518-8.572,4.178-13.251C169.908,168.201,163.893,166.848,160.789,167.737z
				 M164.072,179.2c-1.214,0.348-2.489-0.36-2.837-1.574c-0.348-1.214,0.36-2.489,1.574-2.837c1.214-0.348,2.489,0.36,2.837,1.574
				C165.993,177.578,165.285,178.853,164.072,179.2z"/>
			<path style="fill:#FF4F84;" d="M141.371,268.026c-3.104,0.889-7.492,5.221-5.795,11.145c1.34,4.679,7.487,6.519,10.559,9.031
				c0.65,0.529,1.603,0.256,1.875-0.537c1.277-3.758,5.518-8.572,4.178-13.251C150.491,268.491,144.475,267.137,141.371,268.026z
				 M144.654,279.49c-1.214,0.348-2.489-0.36-2.837-1.574c-0.348-1.214,0.36-2.489,1.574-2.837c1.214-0.348,2.489,0.36,2.837,1.574
				C146.575,277.867,145.868,279.142,144.654,279.49z"/>
			<g>
				<g>
					
						<line style="fill:none;stroke:#FF4F84;stroke-width:2;stroke-linecap:round;stroke-linejoin:round;" x1="170.746" y1="194.177" x2="166.753" y2="198.655"/>
					
						<line style="fill:none;stroke:#FF4F84;stroke-width:2;stroke-linecap:round;stroke-linejoin:round;stroke-dasharray:13.4342,7.8366;" x1="161.537" y1="204.503" x2="135.83" y2="233.329"/>
					<polyline style="fill:none;stroke:#FF4F84;stroke-width:2;stroke-linecap:round;stroke-linejoin:round;" points="
						133.222,236.253 129.229,240.731 135.162,241.626 					"/>
					
						<line style="fill:none;stroke:#FF4F84;stroke-width:2;stroke-linecap:round;stroke-linejoin:round;stroke-dasharray:10.5589,6.1593;" x1="141.252" y1="242.545" x2="154.738" y2="244.579"/>
					<polyline style="fill:none;stroke:#FF4F84;stroke-width:2;stroke-linecap:round;stroke-linejoin:round;" points="
						157.783,245.038 163.716,245.933 162.43,251.793 					"/>
					
						<line style="fill:none;stroke:#FF4F84;stroke-width:2;stroke-linecap:round;stroke-linejoin:round;stroke-dasharray:13.5069,7.879;" x1="160.74" y1="259.489" x2="156.998" y2="276.529"/>
					
						<line style="fill:none;stroke:#FF4F84;stroke-width:2;stroke-linecap:round;stroke-linejoin:round;" x1="156.153" y1="280.377" x2="154.867" y2="286.238"/>
				</g>
			</g>
		</g>
		<g>
			<g>
				<g>
					<polygon style="fill:#F7620F;" points="335.27,244.186 307.089,244.186 304.214,255.938 339.027,255.938 					"/>
					<polygon style="fill:#FFA329;" points="331.519,244.186 303.338,244.186 299.581,255.938 334.393,255.938 					"/>
					<g>
						<path style="fill:#FFFFFF;" d="M311.377,247.427v1.181h-1.667v4.957h-1.493v-4.957h-1.649v-1.181H311.377z"/>
						<path style="fill:#FFFFFF;" d="M315.805,252.445h-2.301l-0.383,1.12h-1.563l2.249-6.095h1.71l2.249,6.095h-1.58
							L315.805,252.445z M315.422,251.317l-0.764-2.258l-0.773,2.258H315.422z"/>
						<path style="fill:#FFFFFF;" d="M322.065,253.565l-1.294-1.91l-1.111,1.91h-1.702l1.963-3.16l-2.023-2.978h1.763l1.259,1.849
							l1.085-1.849h1.693l-1.937,3.091l2.066,3.047H322.065z"/>
						<path style="fill:#FFFFFF;" d="M325.885,247.427v6.138H324.4v-6.138H325.885z"/>
					</g>
				</g>
				<path style="fill:#261D4F;" d="M222.272,318.374c-0.008,0-0.016,0.002-0.023,0.002h-12.743c-7.48,0-13.54,9.1-13.54,20.32
					c0,11.22,6.06,20.32,13.54,20.32h12.743c0.008,0,0.016,0.002,0.023,0.002c7.48,0,13.545-9.098,13.545-20.322
					C235.817,327.472,229.753,318.374,222.272,318.374z"/>
				<path style="fill:#FF641F;" d="M222.621,297.649h-6.833c-2.444,0-4.425-1.981-4.425-4.425v-1.008
					c0-2.444,1.981-4.425,4.425-4.425h6.833c2.444,0,4.425,1.981,4.425,4.425v1.008
					C227.046,295.668,225.065,297.649,222.621,297.649z"/>
				<path style="fill:#423568;" d="M394.249,318.376v40.64h-12.77c-7.48,0-13.54-9.1-13.54-20.32c0-11.22,6.06-20.32,13.54-20.32
					H394.249z"/>
				<path style="fill:#423568;" d="M310.091,318.376v40.64h-12.77c-7.48,0-13.54-9.1-13.54-20.32c0-11.22,6.06-20.32,13.54-20.32
					H310.091z"/>
				<path style="fill:#423568;" d="M310.871,338.696c0,2.39-0.28,4.68-0.78,6.81v-13.62
					C310.591,334.016,310.871,336.306,310.871,338.696z"/>
				<path style="fill:#FFA329;" d="M415.521,335.756c0.11,1.59-1.16,2.94-2.75,2.94h-145.24c-2.49,0-4.25-2.44-3.46-4.8l0.18-0.55
					l6.95-20.64l0.18-0.53c0.14-0.41,0.29-0.81,0.45-1.21c0.01-0.02,0.02-0.04,0.02-0.06c0.16-0.38,0.32-0.75,0.5-1.11
					c0.02-0.04,0.04-0.07,0.05-0.11c0.16-0.31,0.32-0.62,0.49-0.92c0.17-0.31,0.35-0.62,0.54-0.92c0.09-0.14,0.17-0.27,0.26-0.41
					c0.22-0.32,0.44-0.63,0.66-0.93c0.18-0.24,0.36-0.47,0.55-0.7c0.07-0.09,0.15-0.18,0.23-0.27c0.2-0.25,0.42-0.49,0.63-0.72
					c0.36-0.38,0.73-0.74,1.11-1.09c0.26-0.25,0.53-0.48,0.8-0.71c0.36-0.29,0.72-0.57,1.1-0.84c0.33-0.24,0.67-0.47,1.02-0.69
					c0.01,0,0.01,0,0.02-0.01c0.35-0.22,0.72-0.43,1.08-0.63c0.37-0.2,0.75-0.39,1.13-0.57c0.38-0.18,0.76-0.34,1.15-0.49
					c0.05-0.02,0.11-0.05,0.17-0.07c0.3-0.12,0.61-0.23,0.93-0.33c0.1-0.03,0.21-0.07,0.33-0.1c0.31-0.1,0.62-0.19,0.94-0.27
					c0.03-0.01,0.05-0.01,0.08-0.02l0.06-0.01l0.88-0.2l22.94-4.64l3.47-4.09l24.6-28.98c1.87-2.2,4.6-3.46,7.48-3.46h20.52
					c6.45,0,12.53,2.99,16.47,8.1l14.93,19.36c1.07,1.38,2.51,2.43,4.16,3.02l4,1.44l2.28,0.82c3.1,1.11,5.25,3.95,5.47,7.24
					l0.61,8.76L415.521,335.756z"/>
				<path style="fill:#FFBE2C;" d="M415.355,330.341H284.859c-0.595,0-1.077-0.482-1.077-1.077l0,0c0-0.595,0.482-1.077,1.077-1.077
					h130.496c0.595,0,1.077,0.482,1.077,1.077l0,0C416.432,329.858,415.95,330.341,415.355,330.341z"/>
				<path style="fill:#FFBE2C;" d="M415.355,326.641H284.859c-0.595,0-1.077-0.482-1.077-1.077l0,0c0-0.595,0.482-1.077,1.077-1.077
					h130.496c0.595,0,1.077,0.482,1.077,1.077l0,0C416.432,326.158,415.95,326.641,415.355,326.641z"/>
				<path style="fill:#B8B4EF;" d="M377.933,341.908h-51.802c-2.365,0-4.282-1.917-4.282-4.282v0c0-2.365,1.917-4.282,4.282-4.282
					h51.802c2.365,0,4.282,1.917,4.282,4.282v0C382.215,339.991,380.297,341.908,377.933,341.908z"/>
				<path style="fill:#B8B4EF;" d="M415.447,341.908h-13.663c-2.119,0-3.837-1.718-3.837-3.837v-0.891
					c0-2.119,1.718-3.837,3.837-3.837h13.663c2.119,0,3.837,1.718,3.837,3.837v0.891
					C419.284,340.191,417.566,341.908,415.447,341.908z"/>
				<path style="fill:#FFA329;" d="M309.501,294.146l-22.94,4.64c-0.3,0.06-0.59,0.12-0.88,0.2l-0.06,0.01
					c-0.03,0.01-0.05,0.01-0.08,0.02l-25.21,5.69c-1.26,0.29-2.16,1.41-2.16,2.7v2.11h-11.64l-3.09-3.09h-33.84l-2.87,2.87h-11.64
					v-1.89c0-1.29-0.9-2.41-2.16-2.7l-8.56-1.93c2.47-1.96,5.4-3.35,8.58-3.99l22.94-4.64H309.501z"/>
				<path style="fill:#FF8B2C;" d="M285.541,299.016c-0.32,0.08-0.63,0.17-0.94,0.27c-0.12,0.03-0.23,0.07-0.33,0.1
					c-0.31,0.1-0.63,0.21-0.93,0.33c-0.06,0.02-0.12,0.05-0.17,0.07c-0.39,0.15-0.77,0.31-1.15,0.49c-0.38,0.18-0.76,0.37-1.13,0.57
					c-0.37,0.2-0.72,0.41-1.08,0.63c-0.01,0.01-0.01,0.01-0.02,0.01c-0.35,0.22-0.69,0.45-1.02,0.69c-0.38,0.27-0.74,0.55-1.1,0.84
					c-0.27,0.23-0.54,0.46-0.8,0.71c-0.38,0.35-0.75,0.71-1.11,1.09c-0.22,0.23-0.43,0.47-0.63,0.72c-0.08,0.09-0.16,0.18-0.23,0.27
					c-0.19,0.23-0.37,0.46-0.55,0.7c-0.22,0.3-0.44,0.61-0.66,0.93c-0.09,0.14-0.17,0.27-0.26,0.41c-0.19,0.3-0.37,0.61-0.54,0.92
					c-0.17,0.3-0.33,0.61-0.49,0.92c-0.01,0.04-0.03,0.07-0.05,0.11c-0.18,0.37-0.34,0.74-0.5,1.11c0,0.02-0.01,0.04-0.02,0.06
					c-0.16,0.4-0.31,0.8-0.45,1.21l-0.18,0.53l-6.95,20.64l-0.18,0.54c-0.79,2.37,0.96,4.81,3.46,4.81h-93.61
					c-2.5,0-4.26-2.44-3.46-4.81l0.18-0.54l6.96-20.66l0.17-0.51c1.27-3.77,3.59-7.02,6.6-9.4l8.56,1.93
					c1.26,0.29,2.16,1.41,2.16,2.7v1.89h11.64l2.87-2.87h33.84l3.09,3.09h11.64v-2.11c0-1.29,0.9-2.41,2.16-2.7L285.541,299.016z"/>
				<path style="fill:#F7620F;" d="M250.475,329.668v6.011c-1.061,1.089-1.993,2.044-2.87,2.945h-64.528
					c-0.867-0.9-1.798-1.856-2.859-2.945v-6.011c3.65-3.756,5.708-5.856,9.368-9.611h51.521L250.475,329.668z"/>
				<path style="fill:#423568;" d="M247.781,330.636v5.41c-0.98,0.98-1.84,1.84-2.65,2.65h-59.58c-0.8-0.81-1.66-1.67-2.64-2.65
					v-5.41c1.27-1.28,2.33-2.34,3.34-3.35c0.69-0.69,1.36-1.35,2.05-2.04c0.98-0.98,2.02-2.02,3.26-3.26h47.57L247.781,330.636z"/>
				<g>
					<path style="fill:#635489;" d="M188.301,325.246v13.45h-2.05v-11.41C186.941,326.595,187.611,325.936,188.301,325.246z"/>
					<rect x="194.271" y="321.986" style="fill:#635489;" width="2.05" height="16.71"/>
					<rect x="202.291" y="321.986" style="fill:#635489;" width="2.05" height="16.71"/>
					<rect x="210.311" y="321.986" style="fill:#635489;" width="2.05" height="16.71"/>
					<rect x="218.331" y="321.986" style="fill:#635489;" width="2.05" height="16.71"/>
					<rect x="226.351" y="321.986" style="fill:#635489;" width="2.05" height="16.71"/>
					<rect x="234.371" y="321.986" style="fill:#635489;" width="2.05" height="16.71"/>
					<polygon style="fill:#635489;" points="244.441,327.296 244.441,338.696 242.391,338.696 242.391,325.246 					"/>
				</g>
				<path style="fill:#FF8B2C;" d="M364.451,257.616h-19.4c-2.88,0-5.61,1.26-7.48,3.46l-24.6,28.98l-3.47,4.09h-93.61l22.83-23.46
					c8.24-8.46,19.41-13.43,31.22-13.88C295.921,255.816,342.491,254.616,364.451,257.616z"/>
				<path style="fill:#423568;" d="M335.541,258.846c-0.09,0.09-0.17,0.19-0.26,0.29l-27.17,32.01h-85.11l17.87-18.37
					c7.74-7.94,18.1-12.55,29.18-12.97c13.08-0.5,32.58-1.09,51.17-1.09C326.341,258.716,331.111,258.756,335.541,258.846z"/>
				<path style="fill:#FFFFFF;" d="M285.541,299.016c-0.32,0.08-0.63,0.17-0.94,0.27c-0.12,0.03-0.23,0.07-0.33,0.1
					c-0.32,0.1-0.63,0.21-0.93,0.33c-0.06,0.02-0.12,0.05-0.17,0.07c-0.39,0.15-0.77,0.31-1.15,0.49c-0.38,0.18-0.76,0.37-1.13,0.57
					c-0.36,0.2-0.73,0.41-1.08,0.63c-0.01,0.01-0.01,0.01-0.02,0.01c-0.35,0.22-0.69,0.45-1.02,0.69c-0.38,0.27-0.74,0.55-1.1,0.84
					c-0.27,0.23-0.54,0.46-0.8,0.71c-0.38,0.35-0.75,0.71-1.11,1.09c-0.21,0.23-0.43,0.47-0.63,0.72c-0.08,0.09-0.16,0.18-0.23,0.27
					c-0.19,0.23-0.37,0.46-0.55,0.7c-0.22,0.3-0.44,0.61-0.66,0.93c-0.08,0.13-0.17,0.27-0.26,0.41c-0.19,0.3-0.37,0.61-0.54,0.92
					c-0.17,0.3-0.33,0.61-0.49,0.92c-0.01,0.04-0.03,0.07-0.05,0.11c-0.18,0.36-0.34,0.73-0.5,1.11c0,0.02-0.01,0.04-0.02,0.06
					c-0.16,0.4-0.31,0.8-0.45,1.21l-0.18,0.53h-10.27c-1.52,0-2.76-1.24-2.76-2.76v-2.54c0-1.29,0.9-2.41,2.16-2.7L285.541,299.016z
					"/>
				<path style="fill:#ECE6FF;" d="M286.561,298.785l-0.93,5.08c-0.93,5.12-5.4,8.84-10.6,8.84h-3.83l0.18-0.53
					c0.14-0.41,0.29-0.81,0.45-1.21c0.01-0.02,0.02-0.04,0.02-0.06c0.16-0.38,0.32-0.75,0.5-1.11c0.02-0.04,0.04-0.07,0.05-0.11
					c0.16-0.31,0.32-0.62,0.49-0.92c0.17-0.31,0.35-0.62,0.54-0.92c0.09-0.14,0.17-0.27,0.26-0.41c0.22-0.32,0.44-0.63,0.66-0.93
					c0.18-0.24,0.36-0.47,0.55-0.7c0.07-0.09,0.15-0.18,0.23-0.27c0.2-0.25,0.42-0.49,0.63-0.72c0.36-0.38,0.73-0.74,1.11-1.09
					c0.26-0.25,0.53-0.48,0.8-0.71c0.36-0.29,0.72-0.57,1.1-0.84c0.33-0.24,0.67-0.47,1.02-0.69c0.01,0,0.01,0,0.02-0.01
					c0.35-0.22,0.72-0.43,1.08-0.63c0.37-0.2,0.75-0.39,1.13-0.57c0.38-0.18,0.76-0.34,1.15-0.49c0.05-0.02,0.11-0.05,0.17-0.07
					c0.3-0.12,0.61-0.23,0.93-0.33c0.1-0.03,0.21-0.07,0.33-0.1c0.31-0.1,0.62-0.19,0.94-0.27c0.03-0.01,0.05-0.01,0.08-0.02
					l0.06-0.01L286.561,298.785z"/>
				<path style="fill:#FFFFFF;" d="M195.091,307.406v2.54c0,1.52-1.24,2.76-2.76,2.76h-14.1c-0.21,0-0.42-0.01-0.63-0.02l0.17-0.51
					c1.27-3.77,3.59-7.02,6.6-9.4l8.56,1.93C194.191,304.996,195.091,306.116,195.091,307.406z"/>
				<g>
					<ellipse style="fill:#635489;" cx="310.088" cy="338.696" rx="13.545" ry="20.322"/>
					<ellipse style="fill:#AFA6CC;" cx="310.088" cy="338.696" rx="7.751" ry="11.63"/>
					<ellipse style="fill:#635489;" cx="308.543" cy="338.993" rx="4.194" ry="6.292"/>
					<path style="fill:#423568;" d="M309.256,338.993c0,1.28-0.692,2.317-1.545,2.317c-0.853,0-1.544-1.038-1.544-2.317
						c0-1.28,0.691-2.317,1.544-2.317C308.564,336.675,309.256,337.713,309.256,338.993z"/>
					<path style="fill:#AFA6CC;" d="M308.543,338.993c0,0.689-0.372,1.248-0.832,1.248c-0.459,0-0.832-0.559-0.832-1.248
						c0-0.689,0.372-1.248,0.832-1.248C308.171,337.745,308.543,338.303,308.543,338.993z"/>
				</g>
				<path style="fill:#423568;" d="M395.029,338.696c0,2.39-0.28,4.68-0.78,6.81v-13.62
					C394.749,334.016,395.029,336.306,395.029,338.696z"/>
				<g>
					<ellipse style="fill:#635489;" cx="394.246" cy="338.696" rx="13.545" ry="20.322"/>
					<ellipse style="fill:#AFA6CC;" cx="394.246" cy="338.696" rx="7.751" ry="11.63"/>
					<ellipse style="fill:#635489;" cx="392.701" cy="338.993" rx="4.194" ry="6.292"/>
					<path style="fill:#423568;" d="M393.414,338.993c0,1.28-0.692,2.317-1.545,2.317c-0.853,0-1.544-1.038-1.544-2.317
						c0-1.28,0.691-2.317,1.544-2.317C392.722,336.675,393.414,337.713,393.414,338.993z"/>
					<path style="fill:#AFA6CC;" d="M392.701,338.993c0,0.689-0.372,1.248-0.832,1.248c-0.459,0-0.832-0.559-0.832-1.248
						c0-0.689,0.372-1.248,0.832-1.248C392.329,337.745,392.701,338.303,392.701,338.993z"/>
				</g>
				<path style="fill:#B8B4EF;" d="M295.9,341.908h-34.038c-2.365,0-4.282-1.917-4.282-4.282v0c0-2.365,1.917-4.282,4.282-4.282
					H295.9c2.365,0,4.282,1.917,4.282,4.282v0C300.182,339.991,298.265,341.908,295.9,341.908z"/>
				<path style="fill:#CFC9F7;" d="M265.566,341.908h-95.693c-1.922,0-3.48-1.558-3.48-3.48v-1.604c0-1.922,1.558-3.48,3.48-3.48
					h95.693c1.922,0,3.48,1.558,3.48,3.48v1.604C269.046,340.35,267.488,341.908,265.566,341.908z"/>
				<path style="fill:#261D4F;" d="M286.561,282.116c-4.99,0-9.03,4.04-9.03,9.03h2.65c0-3.53,2.85-6.38,6.38-6.38
					s6.38,2.85,6.38,6.38h2.65C295.591,286.156,291.551,282.116,286.561,282.116z"/>
				<path style="fill:#423568;" d="M346.598,260.964l8.175,0.286c0.562,0.02,1.008,0.481,1.008,1.044v28.643
					c0,0.555-0.434,1.013-0.987,1.043l-34.233,1.876c-2.05,0.11-3.26-2.27-1.96-3.86l21.251-25.978
					C341.501,262.002,343.996,260.872,346.598,260.964z"/>
				<path style="fill:#423568;" d="M390.556,290.105l-30.371,1.666c-0.537,0.03-0.989-0.398-0.989-0.936v-28.509
					c0-0.531,0.44-0.956,0.97-0.937l9.24,0.326c3.08,0.11,5.94,1.62,7.77,4.1l15.15,20.53
					C393.446,287.855,392.426,290.006,390.556,290.105z"/>
				<path style="fill:#FF641F;" d="M327.948,297.649h-6.833c-2.444,0-4.425-1.981-4.425-4.425v-1.008
					c0-2.444,1.981-4.425,4.425-4.425h6.833c2.444,0,4.425,1.981,4.425,4.425v1.008
					C332.373,295.668,330.392,297.649,327.948,297.649z"/>
				<path style="fill:#423568;" d="M350.783,304.381l-6.755,0.318c-0.721,0.034-1.333-0.523-1.367-1.244l0,0
					c-0.034-0.721,0.523-1.333,1.244-1.367l6.755-0.318c0.721-0.034,1.333,0.523,1.367,1.244l0,0
					C352.061,303.735,351.504,304.347,350.783,304.381z"/>
				<path style="fill:#423568;" d="M387.262,302.977l-6.755,0.319c-0.721,0.034-1.333-0.523-1.367-1.244l0,0
					c-0.034-0.721,0.523-1.333,1.244-1.367l6.755-0.318c0.721-0.034,1.333,0.523,1.367,1.244l0,0
					C388.54,302.331,387.983,302.943,387.262,302.977z"/>
				<path style="fill:#FF4F84;" d="M413.491,306.355h-1.88c-2.2,0-4.07-1.6-4.42-3.78l-2.06-13.04l2.28,0.82
					c0.18,0.06,0.35,0.13,0.52,0.21c2.82,1.23,4.74,3.93,4.95,7.03l0.34,4.94L413.491,306.355z"/>
				<path style="fill:#FFA9E0;" d="M413.221,302.535c-2.01-0.19-3.67-1.72-3.99-3.76l-1.3-8.21c2.82,1.23,4.74,3.93,4.95,7.03
					L413.221,302.535z"/>
				<rect x="214.512" y="309.413" style="fill:#FFBE2C;" width="9.386" height="1.188"/>
				<g>
					<g>
						<rect x="353.72" y="311.165" style="fill:#423568;" width="3.12" height="3.12"/>
						<rect x="356.84" y="314.285" style="fill:#423568;" width="3.12" height="3.12"/>
					</g>
					<g>
						<g>
							<rect x="347.343" y="311.165" style="fill:#423568;" width="3.12" height="3.12"/>
							<rect x="350.463" y="314.285" style="fill:#423568;" width="3.12" height="3.12"/>
							<rect x="344.224" y="314.285" style="fill:#423568;" width="3.12" height="3.12"/>
						</g>
						<g>
							<rect x="360.096" y="311.165" style="fill:#423568;" width="3.12" height="3.12"/>
							<rect x="363.216" y="314.285" style="fill:#423568;" width="3.12" height="3.12"/>
						</g>
						<g>
							<rect x="366.473" y="311.165" style="fill:#423568;" width="3.12" height="3.12"/>
							<rect x="369.593" y="314.285" style="fill:#423568;" width="3.12" height="3.12"/>
						</g>
						<g>
							<rect x="372.849" y="311.165" style="fill:#423568;" width="3.12" height="3.12"/>
							<rect x="375.969" y="314.285" style="fill:#423568;" width="3.12" height="3.12"/>
						</g>
					</g>
				</g>
			</g>
			<path style="fill:#FF4F84;" d="M327.995,172.165c-7.719-1.245-21.794,3.737-24.17,18.468
				c-1.877,11.635,9.704,21.992,13.853,30.659c0.881,1.828,3.251,2.21,4.662,0.752c6.664-6.923,20.914-13.112,22.791-24.748
				C347.508,182.566,335.714,173.41,327.995,172.165z M323.396,200.671c-3.019-0.487-5.086-3.349-4.599-6.368
				c0.487-3.019,3.349-5.086,6.368-4.599c3.019,0.487,5.086,3.349,4.599,6.368C329.277,199.091,326.415,201.158,323.396,200.671z"/>
		</g>
	</g>
	<path style="fill:#FFFFFF;" d="M-117.458-32.9"/>
</g>
</svg>
